<?xml version="1.0" encoding="utf-8"?>
<!-- Generator: Adobe Illustrator 15.0.2, SVG Export Plug-In . SVG Version: 6.00 Build 0)  -->
<!DOCTYPE svg PUBLIC "-//W3C//DTD SVG 1.1//EN" "http://www.w3.org/Graphics/SVG/1.1/DTD/svg11.dtd">
<svg version="1.1" id="Layer_1" xmlns="http://www.w3.org/2000/svg" xmlns:xlink="http://www.w3.org/1999/xlink" x="0px" y="0px"
	 width="528px" height="234px" viewBox="0 0 528 234" enable-background="new 0 0 528 234" xml:space="preserve">
<g>
	<g>
		<defs>
			<rect id="SVGID_1_" x="-72.83" y="-121.074" width="648" height="468"/>
		</defs>
		<clipPath id="SVGID_2_">
			<use xlink:href="#SVGID_1_"  overflow="visible"/>
		</clipPath>
		<path clip-path="url(#SVGID_2_)" fill="#FFC100" d="M517.933,132.192c0,2.947-0.49,5.589-1.474,7.923
			c-0.982,2.334-2.35,4.315-4.1,5.942c-1.751,1.627-3.793,2.855-6.127,3.686c-2.334,0.829-4.854,1.244-7.556,1.244
			c-6.143,0-10.765-1.536-13.866-4.605c-3.102-3.072-4.651-7.401-4.651-12.992h10.317c0,2.58,0.723,4.562,2.165,5.943
			c1.443,1.381,3.641,2.072,6.589,2.072c0.981,0,1.935-0.215,2.854-0.645c0.922-0.43,1.735-1.029,2.441-1.797
			c0.707-0.769,1.274-1.705,1.705-2.811c0.43-1.105,0.645-2.365,0.645-3.777v-6.818c-0.798,1.904-2.242,3.379-4.33,4.423
			s-4.422,1.565-7.002,1.565c-2.211,0-4.254-0.353-6.127-1.06s-3.501-1.735-4.883-3.086s-2.457-2.948-3.226-4.791
			c-0.768-1.843-1.15-3.931-1.15-6.265V89.073h11.056v25.613c0,5.221,2.364,7.832,7.094,7.832c2.58,0,4.653-0.737,6.22-2.211
			c1.565-1.475,2.35-3.348,2.35-5.62V89.073h11.056V132.192L517.933,132.192z M475.736,131.087h-10.688l-0.185-5.16
			c-2.519,4.177-6.389,6.265-11.608,6.265c-3.071,0-5.743-0.599-8.016-1.797c-2.273-1.198-4.161-2.825-5.666-4.884
			c-1.505-2.058-2.642-4.438-3.409-7.139c-0.768-2.703-1.151-5.59-1.151-8.662c0-3.194,0.399-6.126,1.197-8.799
			c0.799-2.672,1.95-4.959,3.455-6.864c1.505-1.904,3.332-3.394,5.482-4.468c2.148-1.075,4.575-1.612,7.277-1.612
			c5.099,0,9.184,2.211,12.254,6.633V73.779h11.057L475.736,131.087L475.736,131.087z M455.836,97.458
			c-6.326,0-9.49,4.33-9.49,12.991c0,3.747,0.86,6.771,2.58,9.075c1.721,2.304,3.992,3.455,6.817,3.455
			c1.352,0,2.61-0.292,3.778-0.875c1.167-0.583,2.18-1.413,3.039-2.487c0.859-1.075,1.521-2.334,1.98-3.776
			c0.461-1.443,0.691-3.025,0.691-4.746C465.233,102.003,462.102,97.458,455.836,97.458z M403.597,113.028
			c0.186,3.132,1.105,5.65,2.765,7.555c1.658,1.904,3.87,2.856,6.634,2.856c1.781,0,3.378-0.431,4.791-1.29
			c1.412-0.859,2.334-1.996,2.764-3.409h11.425c-1.29,4.3-3.562,7.617-6.817,9.951c-3.255,2.334-7.125,3.501-11.608,3.501
			c-14.004,0-21.006-7.616-21.006-22.85c0-6.51,1.75-11.701,5.251-15.569c3.501-3.869,8.507-5.804,15.019-5.804
			c13.145,0,19.717,8.354,19.717,25.06L403.597,113.028L403.597,113.028z M421.102,106.026c-0.122-3.132-1.027-5.451-2.718-6.956
			c-1.688-1.505-3.64-2.257-5.851-2.257c-2.272,0-4.207,0.798-5.804,2.396c-1.599,1.597-2.52,3.869-2.766,6.817H421.102z
			 M339.38,95.247c1.413-2.764,3.117-4.668,5.113-5.712s4.377-1.566,7.141-1.566c2.825,0,5.083,0.506,6.771,1.52
			c1.688,1.013,3.332,2.749,4.93,5.206c2.211-4.484,5.988-6.726,11.332-6.726c2.088,0,4.022,0.368,5.805,1.105
			c1.78,0.737,3.302,1.735,4.561,2.994c1.26,1.259,2.242,2.749,2.949,4.469c0.706,1.72,1.059,3.532,1.059,5.436v29.115h-10.871
			v-25.43c0-2.58-0.599-4.653-1.797-6.219c-1.197-1.566-2.779-2.349-4.745-2.349c-2.026,0-3.716,0.845-5.066,2.534
			c-1.352,1.689-2.026,3.823-2.026,6.403v25.061h-11.057v-25.246c0-3.378-0.507-5.635-1.521-6.771s-2.718-1.705-5.113-1.705
			c-4.545,0-6.816,2.733-6.816,8.2v25.521h-11.057V89.073h10.41L339.38,95.247L339.38,95.247z M304.094,87.968
			c3.316,0,6.295,0.522,8.938,1.566c2.641,1.044,4.883,2.533,6.726,4.468s3.255,4.269,4.238,7.002
			c0.981,2.733,1.474,5.758,1.474,9.075c0,3.317-0.507,6.342-1.52,9.075c-1.014,2.733-2.441,5.067-4.284,7.002
			s-4.085,3.425-6.726,4.468c-2.643,1.045-5.59,1.566-8.846,1.566c-3.379,0-6.402-0.538-9.074-1.612
			c-2.672-1.075-4.931-2.579-6.772-4.515s-3.255-4.27-4.237-7.002c-0.982-2.733-1.475-5.729-1.475-8.983
			c0-3.317,0.507-6.327,1.521-9.029c1.014-2.702,2.44-5.021,4.283-6.956c1.844-1.935,4.1-3.439,6.771-4.514
			C297.782,88.505,300.775,87.968,304.094,87.968z M304.094,97.365c-6.757,0-10.135,4.238-10.135,12.714
			c0,8.538,3.378,12.807,10.135,12.807c6.756,0,10.135-4.27,10.135-12.807C314.227,101.604,310.85,97.365,304.094,97.365z
			 M269.358,93.035c-0.797-3.194-2.334-5.697-4.606-7.509s-4.821-2.718-7.646-2.718c-2.272,0-4.299,0.491-6.082,1.474
			c-1.781,0.983-3.301,2.365-4.561,4.146c-1.26,1.781-2.211,3.885-2.856,6.311c-0.645,2.426-0.968,5.113-0.968,8.062
			c0,2.887,0.323,5.543,0.968,7.97c0.645,2.426,1.566,4.515,2.764,6.265c1.197,1.75,2.641,3.133,4.331,4.146
			c1.688,1.013,3.608,1.52,5.758,1.52c3.501,0,6.326-0.951,8.477-2.855c2.148-1.904,3.623-4.639,4.422-8.2h11.885
			c-0.614,3.255-1.612,6.188-2.994,8.799s-3.102,4.853-5.159,6.726c-2.058,1.875-4.452,3.317-7.187,4.332
			c-2.733,1.012-5.758,1.52-9.075,1.52c-3.686,0-7.125-0.629-10.318-1.889c-3.195-1.26-5.974-3.133-8.339-5.621
			c-2.365-2.487-4.208-5.573-5.528-9.258c-1.321-3.687-1.981-7.955-1.981-12.808c0-4.791,0.614-9.09,1.843-12.898
			s2.979-7.048,5.251-9.72c2.272-2.671,5.037-4.714,8.292-6.126c3.255-1.412,6.91-2.119,10.964-2.119
			c3.562,0,6.771,0.538,9.628,1.612c2.856,1.075,5.312,2.534,7.371,4.376c2.057,1.842,3.7,4.007,4.929,6.495
			c1.229,2.488,1.996,5.144,2.304,7.97h-11.885V93.035z"/>
	</g>
	<g>
		<defs>
			<rect id="SVGID_3_" x="-5.468" y="-121.074" width="648" height="468"/>
		</defs>
		<clipPath id="SVGID_4_">
			<use xlink:href="#SVGID_3_"  overflow="visible"/>
		</clipPath>
		<path clip-path="url(#SVGID_4_)" fill="#FFB321" d="M324.936,46.43c0.172,2.912,1.028,5.254,2.57,7.023
			c1.542,1.771,3.599,2.656,6.167,2.656c1.657,0,3.144-0.399,4.456-1.199c1.312-0.799,2.169-1.855,2.569-3.17h10.623
			c-1.199,3.998-3.312,7.082-6.34,9.252s-6.624,3.256-10.795,3.256c-13.021,0-19.532-7.082-19.532-21.245
			c0-6.054,1.628-10.88,4.883-14.478c3.256-3.6,7.91-5.397,13.963-5.397c12.223,0,18.334,7.769,18.334,23.302H324.936L324.936,46.43
			z M341.213,39.919c-0.115-2.913-0.957-5.068-2.526-6.468c-1.57-1.399-3.385-2.1-5.44-2.1c-2.113,0-3.912,0.742-5.396,2.227
			c-1.484,1.486-2.341,3.6-2.569,6.341H341.213z M313.114,33.751c-0.972-0.173-1.913-0.257-2.827-0.257
			c-6.339,0-9.509,3.141-9.509,9.423v20.304h-10.28V24.156h9.681v4.711c0.856-1.313,1.742-2.342,2.655-3.084
			c0.914-0.742,1.856-1.313,2.827-1.713c0.971-0.4,1.971-0.644,2.999-0.729c1.027-0.085,2.056-0.128,3.084-0.128h1.37V33.751
			L313.114,33.751z M286.386,63.221h-9.767v-5.482c-2.57,4.34-6.597,6.511-12.079,6.511c-1.941,0-3.727-0.343-5.354-1.027
			c-1.627-0.687-3.025-1.671-4.196-2.956s-2.085-2.799-2.741-4.54c-0.657-1.741-0.985-3.698-0.985-5.868V24.158h10.28v24.158
			c0,4.854,2.198,7.28,6.596,7.28c2.628,0,4.627-0.828,5.997-2.483c1.371-1.656,2.057-3.799,2.057-6.426V24.158h10.194
			L286.386,63.221L286.386,63.221z M247.15,31.523h-21.502v16.105c0,2.456,0.456,4.354,1.369,5.697
			c0.914,1.342,2.429,2.013,4.541,2.013c2.057,0,3.569-0.657,4.54-1.972c0.972-1.313,1.456-3.197,1.456-5.652V37.521h9.596v11.221
			c0,2.058-0.301,4.026-0.899,5.912c-0.599,1.885-1.542,3.541-2.827,4.969s-2.927,2.57-4.926,3.427s-4.369,1.285-7.11,1.285
			c-2.854,0-5.282-0.429-7.281-1.285s-3.642-1.999-4.926-3.427c-1.285-1.428-2.228-3.084-2.827-4.969
			c-0.599-1.886-0.898-3.885-0.898-5.996V13.62h10.193v10.537h21.502V31.523L247.15,31.523z M185.812,29.896
			c1.199-2.171,2.813-3.842,4.842-5.013c2.027-1.171,4.61-1.756,7.753-1.756c1.885,0,3.611,0.286,5.183,0.856
			c1.57,0.57,2.927,1.398,4.069,2.483c1.142,1.085,2.042,2.44,2.698,4.069c0.656,1.628,0.984,3.498,0.984,5.611v27.07h-10.366
			V39.576c0-3.027-0.499-5.068-1.499-6.125c-0.999-1.058-2.727-1.586-5.183-1.586c-5.368,0-8.053,2.998-8.053,8.996V63.22h-10.28
			V24.156h9.852V29.896z M145.891,46.43c0.172,2.912,1.028,5.254,2.57,7.023c1.542,1.771,3.599,2.656,6.168,2.656
			c1.656,0,3.142-0.399,4.455-1.199c1.312-0.799,2.17-1.855,2.57-3.17h10.622c-1.199,3.998-3.312,7.082-6.34,9.252
			c-3.026,2.17-6.625,3.256-10.794,3.256c-13.021,0-19.531-7.082-19.531-21.245c0-6.054,1.627-10.88,4.883-14.478
			c3.255-3.6,7.91-5.397,13.964-5.397c12.222,0,18.333,7.769,18.333,23.302H145.891L145.891,46.43z M162.168,39.919
			c-0.114-2.913-0.957-5.068-2.527-6.468c-1.569-1.4-3.384-2.1-5.438-2.1c-2.113,0-3.912,0.742-5.397,2.227
			c-1.483,1.486-2.342,3.6-2.569,6.341H162.168z M120.107,63.221h-10.795L95.348,24.156h11.479l8.138,25.785l8.312-25.785h10.879
			L120.107,63.221z M93.035,63.221h-9.938l-0.172-4.798c-2.342,3.884-5.939,5.825-10.794,5.825c-2.854,0-5.34-0.557-7.453-1.67
			c-2.112-1.114-3.868-2.629-5.269-4.541c-1.4-1.913-2.456-4.127-3.17-6.639c-0.715-2.514-1.07-5.197-1.07-8.054
			c0-2.97,0.371-5.696,1.113-8.183c0.742-2.484,1.812-4.61,3.213-6.381c1.398-1.771,3.098-3.155,5.097-4.155
			c1.999-0.999,4.255-1.499,6.769-1.499c4.74,0,8.537,2.056,11.394,6.168V9.934h10.28V63.221L93.035,63.221z M74.531,31.951
			c-5.883,0-8.823,4.026-8.823,12.08c0,3.482,0.799,6.295,2.397,8.438c1.6,2.143,3.713,3.213,6.34,3.213
			c1.257,0,2.428-0.271,3.513-0.814c1.085-0.541,2.026-1.312,2.827-2.312c0.8-0.999,1.412-2.17,1.842-3.513
			c0.428-1.342,0.643-2.812,0.643-4.411C83.269,36.178,80.357,31.951,74.531,31.951z M53.713,63.221H41.72l-3.341-10.88H18.934
			l-3.684,10.88H3.6L22.36,10.535h12.764L53.713,63.221z M28.527,22.357l-6.682,20.988h13.364l-6.597-20.988H28.527z"/>
	</g>
	<g>
		<defs>
			<rect id="SVGID_5_" x="3.001" y="-116" width="648" height="468"/>
		</defs>
		<clipPath id="SVGID_6_">
			<use xlink:href="#SVGID_5_"  overflow="visible"/>
		</clipPath>
		<path clip-path="url(#SVGID_6_)" fill="#FFC433" d="M235.588,190.048c1.222-2.212,2.866-3.913,4.932-5.106
			c2.066-1.191,4.699-1.789,7.899-1.789c1.92,0,3.681,0.291,5.281,0.873s2.982,1.426,4.146,2.531s2.081,2.487,2.75,4.146
			c0.669,1.658,1.004,3.564,1.004,5.717v27.582h-10.562V199.91c0-3.084-0.509-5.164-1.527-6.24
			c-1.019-1.076-2.779-1.615-5.281-1.615c-5.47,0-8.205,3.057-8.205,9.165v22.781h-10.474v-39.802h10.038L235.588,190.048
			L235.588,190.048z M201.985,183.152c3.142,0,5.964,0.494,8.466,1.482c2.502,0.989,4.626,2.4,6.372,4.233
			c1.745,1.833,3.084,4.044,4.015,6.634c0.931,2.589,1.396,5.455,1.396,8.598s-0.48,6.008-1.44,8.598s-2.313,4.801-4.059,6.634
			c-1.746,1.833-3.87,3.244-6.372,4.233c-2.502,0.988-5.295,1.482-8.379,1.482c-3.201,0-6.066-0.509-8.598-1.527
			c-2.531-1.018-4.669-2.442-6.415-4.275s-3.084-4.044-4.015-6.635c-0.931-2.59-1.396-5.426-1.396-8.51
			c0-3.143,0.48-5.994,1.44-8.554c0.96-2.562,2.313-4.758,4.059-6.591c1.746-1.832,3.884-3.258,6.416-4.275
			C196.007,183.661,198.843,183.152,201.985,183.152z M201.985,192.055c-6.401,0-9.601,4.016-9.601,12.047
			c0,8.088,3.2,12.131,9.601,12.131c6.401,0,9.601-4.043,9.601-12.131C211.585,196.07,208.386,192.055,201.985,192.055z
			 M178.504,179.486h-10.474v-9.775h10.474V179.486z M178.504,224.001h-10.474v-39.802h10.474V224.001z M163.842,191.706h-21.908
			v16.409c0,2.502,0.466,4.437,1.396,5.805c0.931,1.367,2.473,2.051,4.626,2.051c2.095,0,3.637-0.669,4.626-2.008
			c0.989-1.338,1.483-3.258,1.483-5.761v-10.388h9.776v11.436c0,2.095-0.305,4.104-0.917,6.021c-0.611,1.92-1.571,3.607-2.88,5.062
			s-2.982,2.618-5.019,3.491c-2.037,0.873-4.452,1.31-7.245,1.31c-2.91,0-5.382-0.437-7.419-1.31
			c-2.037-0.873-3.71-2.036-5.019-3.491c-1.309-1.455-2.27-3.143-2.88-5.062c-0.61-1.918-0.917-3.957-0.917-6.108v-35.699h10.387
			v10.735h21.908v7.507H163.842z M118.367,198.427c-0.291-2.036-1.12-3.637-2.488-4.801c-1.367-1.163-3.04-1.745-5.019-1.745
			c-1.105,0-2.153,0.188-3.142,0.567c-0.989,0.378-1.848,1.018-2.575,1.92c-0.727,0.901-1.309,2.095-1.746,3.577
			c-0.437,1.484-0.655,3.304-0.655,5.457c0,4.363,0.786,7.594,2.357,9.688s3.375,3.143,5.412,3.143c2.037,0,3.782-0.567,5.237-1.702
			c1.455-1.136,2.298-2.778,2.531-4.933h10.562c-0.291,2.328-0.946,4.438-1.964,6.328c-1.019,1.893-2.342,3.521-3.972,4.889
			c-1.629,1.367-3.491,2.414-5.586,3.143c-2.095,0.729-4.335,1.091-6.721,1.091c-2.735,0-5.208-0.45-7.419-1.353
			s-4.131-2.24-5.761-4.016c-1.629-1.774-2.88-4-3.753-6.678c-0.873-2.677-1.309-5.79-1.309-9.339c0-3.55,0.451-6.619,1.353-9.209
			c0.902-2.589,2.153-4.713,3.753-6.371c1.6-1.658,3.549-2.896,5.848-3.71s4.844-1.223,7.638-1.223c5.295,0,9.528,1.367,12.7,4.104
			c3.171,2.734,4.931,6.459,5.281,11.172L118.367,198.427L118.367,198.427z M90.698,224.001h-12.22l-3.404-11.085H55.261
			l-3.753,11.085H39.637l19.115-53.681h13.005L90.698,224.001z M65.037,182.366l-6.808,21.385h13.616l-6.721-21.385H65.037z"/>
	</g>
	<g>
		<defs>
			<rect id="SVGID_7_" x="-39.643" y="-111.289" width="648" height="468"/>
		</defs>
		<clipPath id="SVGID_8_">
			<use xlink:href="#SVGID_7_"  overflow="visible"/>
		</clipPath>
		<path clip-path="url(#SVGID_8_)" fill="#FFCC00" d="M470.97,207.938c0,2.018-0.336,3.823-1.009,5.422
			c-0.673,1.597-1.607,2.951-2.806,4.064c-1.198,1.114-2.596,1.954-4.191,2.521c-1.597,0.566-3.319,0.852-5.169,0.852
			c-4.202,0-7.365-1.051-9.487-3.152c-2.122-2.101-3.185-5.063-3.185-8.889h7.062c0,1.766,0.494,3.121,1.48,4.066
			c0.987,0.945,2.49,1.418,4.508,1.418c0.673,0,1.323-0.146,1.953-0.441c0.632-0.294,1.188-0.703,1.672-1.229
			c0.482-0.526,0.872-1.166,1.166-1.924c0.294-0.756,0.44-1.617,0.44-2.584v-4.666c-0.546,1.305-1.534,2.312-2.963,3.026
			s-3.025,1.071-4.791,1.071c-1.513,0-2.91-0.241-4.191-0.725s-2.396-1.188-3.342-2.111c-0.944-0.926-1.681-2.018-2.206-3.278
			c-0.524-1.26-0.788-2.688-0.788-4.287v-18.659h7.564v17.524c0,3.571,1.618,5.358,4.854,5.358c1.766,0,3.185-0.504,4.256-1.514
			c1.07-1.009,1.606-2.29,1.606-3.846v-17.523h7.564v29.504H470.97z M434.975,187.134c-0.378-2.521-2.08-3.782-5.105-3.782
			c-1.219,0-2.279,0.264-3.184,0.789c-0.904,0.524-1.355,1.207-1.355,2.049c0,1.135,1.556,2.018,4.665,2.646
			c4.539,1.009,7.438,1.809,8.699,2.396c3.067,1.429,4.603,3.678,4.603,6.744c0,3.278-1.166,5.778-3.498,7.502
			c-2.333,1.724-5.411,2.584-9.235,2.584c-1.892,0-3.667-0.24-5.327-0.725c-1.659-0.482-3.099-1.166-4.316-2.049
			c-1.219-0.883-2.187-1.943-2.9-3.184s-1.093-2.617-1.135-4.129h7.816c0,1.344,0.525,2.405,1.575,3.184
			c1.051,0.777,2.459,1.166,4.224,1.166c1.431,0,2.658-0.283,3.688-0.852c1.029-0.566,1.544-1.293,1.544-2.175
			c0-0.505-0.378-1.009-1.135-1.513c-0.756-0.506-1.912-0.926-3.467-1.262c-4.497-1.051-7.354-1.871-8.573-2.459
			c-3.068-1.429-4.603-3.697-4.603-6.809c0-1.261,0.252-2.479,0.757-3.654c0.505-1.178,1.261-2.219,2.27-3.121
			c1.009-0.903,2.28-1.629,3.814-2.176c1.532-0.546,3.352-0.818,5.451-0.818c1.683,0,3.258,0.23,4.729,0.692
			c1.472,0.464,2.743,1.114,3.813,1.954c1.071,0.842,1.934,1.859,2.584,3.059c0.652,1.197,1.021,2.511,1.104,3.938h-7.503V187.134z
			 M402.637,177.679c4.076,0,7.134,0.968,9.172,2.899c2.038,1.934,3.058,4.749,3.058,8.447v18.154h-7.061
			c-0.084-0.337-0.168-0.693-0.252-1.072c-0.084-0.377-0.147-0.797-0.189-1.261c-0.925,0.968-2.122,1.691-3.593,2.175
			c-1.471,0.484-3.173,0.727-5.106,0.727c-2.898,0-5.222-0.715-6.966-2.145c-1.744-1.429-2.616-3.403-2.616-5.926
			c0-1.976,0.326-3.551,0.979-4.728s1.564-2.103,2.742-2.774c1.177-0.672,2.573-1.176,4.191-1.513
			c1.617-0.336,3.372-0.63,5.264-0.884c1.514-0.209,2.7-0.545,3.562-1.008s1.292-1.113,1.292-1.953c0-1.094-0.504-1.912-1.513-2.459
			s-2.122-0.819-3.342-0.819c-1.346,0-2.47,0.389-3.372,1.166c-0.903,0.776-1.439,1.817-1.607,3.12h-7.249
			c0.252-3.193,1.345-5.684,3.277-7.471C395.24,178.57,398.35,177.679,402.637,177.679z M407.302,193.123
			c-0.757,0.63-2.081,1.135-3.973,1.513c-2.604,0.505-4.371,1.104-5.295,1.798c-0.925,0.692-1.388,1.648-1.388,2.867
			c0,2.143,1.135,3.215,3.404,3.215c0.967,0,1.901-0.137,2.806-0.41c0.903-0.271,1.691-0.683,2.363-1.229
			c0.673-0.546,1.209-1.239,1.606-2.08c0.399-0.84,0.601-1.807,0.601-2.898c0-0.336-0.012-0.799-0.032-1.388
			C407.375,193.921,407.344,193.459,407.302,193.123z M386.814,183.857h-15.823v11.851c0,1.808,0.337,3.205,1.009,4.192
			c0.674,0.986,1.786,1.48,3.342,1.48c1.514,0,2.627-0.482,3.341-1.449c0.715-0.968,1.072-2.354,1.072-4.16v-7.502h7.061v8.258
			c0,1.514-0.221,2.963-0.662,4.35c-0.44,1.389-1.135,2.605-2.08,3.656c-0.946,1.051-2.153,1.892-3.625,2.521
			c-1.471,0.631-3.215,0.945-5.231,0.945c-2.103,0-3.888-0.314-5.358-0.945s-2.679-1.472-3.624-2.521
			c-0.946-1.051-1.64-2.27-2.081-3.656c-0.439-1.387-0.661-2.857-0.661-4.412v-25.781h7.501v7.752h15.823v5.422H386.814z
			 M341.678,182.658c0.884-1.598,2.07-2.826,3.562-3.688c1.493-0.862,3.395-1.292,5.705-1.292c1.387,0,2.658,0.21,3.813,0.631
			c1.155,0.42,2.153,1.029,2.995,1.827c0.84,0.8,1.502,1.798,1.984,2.994c0.483,1.198,0.726,2.574,0.726,4.129v19.921h-7.628
			v-17.398c0-2.228-0.367-3.729-1.104-4.508c-0.736-0.777-2.007-1.166-3.813-1.166c-3.95,0-5.926,2.207-5.926,6.619v16.453h-7.563
			v-28.746h7.248V182.658L341.678,182.658z M319.174,177.679c4.076,0,7.134,0.968,9.173,2.899c2.038,1.934,3.057,4.749,3.057,8.447
			v18.154h-7.062c-0.084-0.337-0.168-0.693-0.252-1.072c-0.084-0.377-0.146-0.797-0.188-1.261c-0.925,0.968-2.123,1.691-3.594,2.175
			c-1.471,0.484-3.174,0.727-5.105,0.727c-2.9,0-5.222-0.715-6.966-2.145c-1.744-1.429-2.616-3.403-2.616-5.926
			c0-1.976,0.325-3.551,0.978-4.728c0.651-1.177,1.565-2.103,2.741-2.774c1.178-0.672,2.574-1.176,4.192-1.513
			c1.618-0.336,3.372-0.63,5.265-0.884c1.513-0.209,2.699-0.545,3.562-1.008c0.86-0.463,1.292-1.113,1.292-1.953
			c0-1.094-0.504-1.912-1.514-2.459c-1.008-0.547-2.121-0.819-3.34-0.819c-1.346,0-2.469,0.389-3.373,1.166
			c-0.903,0.776-1.438,1.817-1.606,3.12h-7.25c0.252-3.193,1.345-5.684,3.278-7.471C311.777,178.57,314.887,177.679,319.174,177.679
			z M323.838,193.123c-0.756,0.63-2.08,1.135-3.972,1.513c-2.604,0.505-4.37,1.104-5.295,1.798
			c-0.925,0.692-1.387,1.648-1.387,2.867c0,2.143,1.135,3.215,3.403,3.215c0.967,0,1.901-0.137,2.806-0.41
			c0.903-0.271,1.69-0.683,2.364-1.229c0.672-0.546,1.207-1.239,1.606-2.08c0.399-0.84,0.599-1.807,0.599-2.898
			c0-0.336-0.01-0.799-0.03-1.388C323.912,193.921,323.881,193.459,323.838,193.123z M304.612,175.22h-19.479v8.763h17.021v6.871
			h-17.021v16.328h-8.131v-38.77h27.611V175.22z"/>
	</g>
	<g>
		<path fill="#FFC100" d="M205.448,80.293c3.763,0,6.584,0.893,8.466,2.677c1.882,1.785,2.822,4.384,2.822,7.797v16.759h-6.518
			c-0.078-0.311-0.154-0.641-0.232-0.988c-0.077-0.35-0.137-0.738-0.175-1.164c-0.854,0.892-1.96,1.562-3.316,2.008
			c-1.357,0.445-2.929,0.668-4.713,0.668c-2.677,0-4.82-0.659-6.432-1.979c-1.608-1.318-2.415-3.142-2.415-5.47
			c0-1.823,0.302-3.278,0.902-4.364c0.603-1.086,1.445-1.939,2.531-2.56c1.086-0.621,2.376-1.086,3.869-1.396
			c1.494-0.312,3.112-0.582,4.858-0.815c1.396-0.194,2.492-0.504,3.287-0.931c0.796-0.427,1.193-1.028,1.193-1.804
			c0-1.008-0.466-1.765-1.396-2.269c-0.93-0.504-1.959-0.757-3.084-0.757c-1.24,0-2.278,0.359-3.112,1.077
			c-0.834,0.718-1.328,1.678-1.483,2.88h-6.692c0.233-2.948,1.242-5.247,3.026-6.896C198.62,81.119,201.491,80.293,205.448,80.293z
			 M209.754,94.549c-0.698,0.582-1.921,1.047-3.666,1.397c-2.405,0.465-4.034,1.018-4.888,1.658c-0.854,0.64-1.28,1.522-1.28,2.647
			c0,1.979,1.047,2.968,3.143,2.968c0.893,0,1.756-0.127,2.59-0.379c0.834-0.251,1.562-0.629,2.182-1.133
			c0.621-0.504,1.115-1.145,1.484-1.92c0.368-0.776,0.553-1.668,0.553-2.677c0-0.311-0.01-0.737-0.029-1.28
			C209.821,95.288,209.792,94.86,209.754,94.549z M159.478,84.891c0.894-1.746,1.97-2.948,3.229-3.607
			c1.261-0.66,2.764-0.99,4.51-0.99c1.784,0,3.21,0.32,4.276,0.96s2.104,1.736,3.113,3.288c1.396-2.832,3.781-4.248,7.156-4.248
			c1.319,0,2.541,0.233,3.666,0.699c1.125,0.465,2.085,1.096,2.881,1.891s1.415,1.736,1.861,2.822s0.669,2.231,0.669,3.434v18.388
			h-6.866V91.465c0-1.629-0.378-2.938-1.135-3.928c-0.756-0.989-1.755-1.484-2.996-1.484c-1.279,0-2.348,0.534-3.2,1.601
			c-0.854,1.066-1.279,2.415-1.279,4.044v15.828h-6.982V91.583c0-2.134-0.319-3.56-0.961-4.277c-0.64-0.718-1.716-1.077-3.229-1.077
			c-2.87,0-4.307,1.726-4.307,5.179v16.119h-6.981V80.993h6.575L159.478,84.891L159.478,84.891z M138.821,80.293
			c3.763,0,6.585,0.893,8.467,2.677c1.881,1.785,2.822,4.384,2.822,7.797v16.759h-6.519c-0.077-0.311-0.154-0.641-0.231-0.988
			c-0.078-0.35-0.137-0.738-0.176-1.164c-0.854,0.892-1.959,1.562-3.316,2.008c-1.357,0.445-2.929,0.668-4.713,0.668
			c-2.677,0-4.82-0.659-6.431-1.979c-1.609-1.318-2.415-3.142-2.415-5.47c0-1.823,0.302-3.278,0.902-4.364
			c0.602-1.086,1.444-1.939,2.531-2.56c1.086-0.621,2.376-1.086,3.869-1.396c1.493-0.312,3.112-0.582,4.857-0.815
			c1.396-0.194,2.493-0.504,3.288-0.931c0.795-0.427,1.193-1.028,1.193-1.804c0-1.008-0.466-1.765-1.397-2.269
			c-0.931-0.504-1.959-0.757-3.084-0.757c-1.24,0-2.277,0.359-3.111,1.077c-0.834,0.718-1.329,1.678-1.484,2.88h-6.691
			c0.232-2.948,1.241-5.247,3.025-6.896C131.994,81.119,134.864,80.293,138.821,80.293z M143.127,94.549
			c-0.698,0.582-1.92,1.047-3.666,1.397c-2.404,0.465-4.034,1.018-4.888,1.658c-0.854,0.64-1.28,1.522-1.28,2.647
			c0,1.979,1.048,2.968,3.144,2.968c0.893,0,1.756-0.127,2.59-0.379c0.834-0.251,1.561-0.629,2.182-1.133s1.115-1.145,1.483-1.92
			c0.368-0.776,0.553-1.668,0.553-2.677c0-0.311-0.009-0.737-0.028-1.28C143.195,95.288,143.166,94.86,143.127,94.549z
			 M125.38,87.509c-0.66-0.117-1.3-0.175-1.921-0.175c-4.306,0-6.459,2.134-6.459,6.401v13.791h-6.982V80.993h6.575v3.2
			c0.582-0.892,1.185-1.59,1.805-2.095c0.62-0.504,1.262-0.892,1.921-1.164c0.658-0.271,1.338-0.436,2.036-0.495
			c0.697-0.058,1.396-0.087,2.095-0.087h0.932L125.38,87.509L125.38,87.509z M91.281,71.74c2.442,0,4.674,0.398,6.69,1.193
			c2.019,0.795,3.764,1.95,5.237,3.462c1.474,1.513,2.618,3.355,3.433,5.528c0.815,2.173,1.223,4.617,1.223,7.332
			s-0.368,5.198-1.105,7.448c-0.735,2.25-1.784,4.17-3.142,5.761c-1.358,1.59-2.978,2.833-4.859,3.724
			c-1.881,0.892-3.985,1.338-6.313,1.338H77.433V71.74H91.281z M84.705,101.417h6.228c3.297,0,5.674-0.999,7.127-2.997
			c1.455-1.998,2.184-5.053,2.184-9.165c0-4.035-0.768-6.924-2.299-8.67c-1.532-1.746-4.084-2.618-7.651-2.618h-5.587
			L84.705,101.417L84.705,101.417z"/>
	</g>
	<g>
		<defs>
			<rect id="SVGID_9_" x="3.001" y="-116" width="648" height="468"/>
		</defs>
		<clipPath id="SVGID_10_">
			<use xlink:href="#SVGID_9_"  overflow="visible"/>
		</clipPath>
		<path clip-path="url(#SVGID_10_)" fill="#FFCC00" d="M256.769,156.891c0.081,1.375,0.485,2.479,1.212,3.313
			c0.728,0.836,1.697,1.253,2.91,1.253c0.781,0,1.481-0.188,2.101-0.564c0.62-0.377,1.024-0.877,1.212-1.496h5.011
			c-0.566,1.887-1.562,3.34-2.99,4.365c-1.428,1.022-3.125,1.534-5.092,1.534c-6.142,0-9.213-3.34-9.213-10.021
			c0-2.855,0.768-5.133,2.303-6.829c1.535-1.697,3.731-2.546,6.586-2.546c5.765,0,8.647,3.664,8.647,10.99H256.769L256.769,156.891z
			 M264.446,153.82c-0.054-1.375-0.451-2.393-1.192-3.053c-0.741-0.658-1.596-0.988-2.566-0.988c-0.997,0-1.845,0.35-2.546,1.051
			c-0.7,0.699-1.104,1.695-1.212,2.99H264.446z M246.222,152.973c-0.135-0.943-0.519-1.686-1.152-2.224
			c-0.633-0.539-1.408-0.81-2.323-0.81c-0.512,0-0.997,0.088-1.455,0.264c-0.458,0.175-0.855,0.472-1.192,0.889
			c-0.337,0.418-0.606,0.971-0.808,1.657s-0.303,1.528-0.303,2.524c0,2.021,0.364,3.517,1.091,4.485
			c0.727,0.97,1.562,1.455,2.505,1.455s1.751-0.263,2.424-0.788c0.673-0.525,1.064-1.285,1.172-2.283h4.89
			c-0.135,1.077-0.438,2.056-0.909,2.931c-0.472,0.876-1.084,1.63-1.839,2.263c-0.754,0.634-1.616,1.118-2.586,1.455
			c-0.97,0.337-2.007,0.505-3.112,0.505c-1.266,0-2.411-0.209-3.435-0.626c-1.024-0.418-1.913-1.037-2.667-1.859
			c-0.754-0.82-1.333-1.852-1.738-3.091c-0.404-1.239-0.606-2.681-0.606-4.323c0-1.644,0.209-3.064,0.626-4.264
			s0.997-2.183,1.737-2.949c0.74-0.768,1.644-1.341,2.708-1.718c1.064-0.378,2.243-0.565,3.536-0.565
			c2.452,0,4.412,0.634,5.88,1.898c1.468,1.268,2.283,2.99,2.444,5.174H246.222z M220.522,149.092
			c0.566-1.023,1.327-1.812,2.283-2.363c0.956-0.553,2.175-0.828,3.657-0.828c0.889,0,1.704,0.135,2.445,0.404
			c0.741,0.269,1.381,0.659,1.919,1.172c0.539,0.512,0.963,1.15,1.273,1.92c0.31,0.768,0.465,1.648,0.465,2.646v12.771h-4.89
			v-11.153c0-1.429-0.236-2.392-0.707-2.89c-0.472-0.498-1.287-0.748-2.445-0.748c-2.532,0-3.798,1.414-3.798,4.244v10.547h-4.849
			v-18.428h4.647V149.092z M206.096,145.898c2.613,0,4.573,0.621,5.88,1.859c1.307,1.239,1.959,3.044,1.959,5.414v11.639h-4.526
			c-0.054-0.215-0.107-0.444-0.162-0.688c-0.054-0.242-0.094-0.512-0.121-0.809c-0.593,0.619-1.36,1.084-2.303,1.395
			c-0.943,0.311-2.034,0.465-3.273,0.465c-1.859,0-3.347-0.458-4.465-1.374s-1.677-2.182-1.677-3.798
			c0-1.268,0.208-2.275,0.626-3.031c0.417-0.754,1.003-1.347,1.758-1.777c0.754-0.432,1.65-0.754,2.688-0.971
			c1.037-0.215,2.162-0.402,3.374-0.564c0.97-0.135,1.731-0.352,2.283-0.646c0.552-0.295,0.828-0.714,0.828-1.253
			c0-0.7-0.323-1.226-0.97-1.575c-0.646-0.351-1.36-0.524-2.142-0.524c-0.862,0-1.583,0.249-2.162,0.747s-0.922,1.164-1.03,2h-4.647
			c0.162-2.047,0.862-3.645,2.101-4.788C201.354,146.475,203.348,145.898,206.096,145.898z M209.086,155.8
			c-0.485,0.404-1.333,0.728-2.545,0.97c-1.67,0.323-2.802,0.707-3.395,1.152c-0.593,0.444-0.889,1.057-0.889,1.838
			c0,1.374,0.728,2.062,2.182,2.062c0.62,0,1.219-0.088,1.798-0.264c0.579-0.176,1.084-0.438,1.516-0.787
			c0.431-0.352,0.774-0.795,1.03-1.334c0.256-0.539,0.384-1.158,0.384-1.858c0-0.216-0.007-0.513-0.02-0.89
			C209.133,156.312,209.113,156.016,209.086,155.8z M174.173,149.092c0.62-1.212,1.367-2.047,2.243-2.505s1.919-0.688,3.132-0.688
			c1.239,0,2.229,0.224,2.97,0.668c0.741,0.443,1.461,1.205,2.162,2.283c0.97-1.968,2.626-2.951,4.97-2.951
			c0.916,0,1.765,0.162,2.546,0.485c0.781,0.323,1.448,0.761,2,1.313c0.552,0.552,0.983,1.205,1.293,1.96
			c0.31,0.754,0.465,1.549,0.465,2.384v12.77h-4.768v-11.152c0-1.133-0.263-2.041-0.788-2.729c-0.525-0.687-1.219-1.029-2.081-1.029
			c-0.889,0-1.63,0.369-2.223,1.111c-0.592,0.739-0.889,1.676-0.889,2.809v10.99h-4.849v-11.071c0-1.481-0.222-2.472-0.667-2.972
			c-0.444-0.498-1.192-0.746-2.243-0.746c-1.994,0-2.99,1.199-2.99,3.597v11.192h-4.849v-18.427h4.566V149.092L174.173,149.092z
			 M158.696,145.898c1.455,0,2.761,0.229,3.919,0.688c1.159,0.458,2.142,1.111,2.95,1.96c0.809,0.85,1.428,1.872,1.859,3.07
			c0.431,1.199,0.646,2.525,0.646,3.98c0,1.454-0.222,2.78-0.667,3.979c-0.445,1.198-1.071,2.223-1.879,3.071
			c-0.809,0.849-1.792,1.502-2.95,1.959c-1.158,0.459-2.451,0.688-3.879,0.688c-1.482,0-2.809-0.234-3.98-0.707
			c-1.171-0.472-2.162-1.132-2.97-1.98c-0.808-0.848-1.428-1.871-1.859-3.069c-0.431-1.199-0.646-2.513-0.646-3.94
			c0-1.453,0.222-2.773,0.667-3.959c0.444-1.187,1.071-2.203,1.879-3.052c0.808-0.849,1.798-1.509,2.97-1.979
			C155.928,146.136,157.241,145.898,158.696,145.898z M158.696,150.021c-2.963,0-4.445,1.857-4.445,5.576
			c0,3.744,1.482,5.616,4.445,5.616c2.963,0,4.445-1.872,4.445-5.616C163.141,151.88,161.659,150.021,158.696,150.021z
			 M147.665,164.812h-5.092v-6.386c0-1.213-0.303-2.073-0.909-2.587c-0.606-0.512-1.609-0.768-3.01-0.768h-5.536v9.738h-5.051
			V139.96h12.608c1.158,0,2.215,0.183,3.172,0.545c0.957,0.364,1.778,0.869,2.465,1.517c0.687,0.646,1.219,1.406,1.596,2.283
			c0.377,0.875,0.566,1.824,0.566,2.848c0,1.375-0.337,2.566-1.01,3.576c-0.673,1.012-1.616,1.744-2.829,2.203
			c1.104,0.351,1.886,0.883,2.344,1.596c0.458,0.715,0.687,1.799,0.687,3.254L147.665,164.812L147.665,164.812z M133.117,144.283
			v6.627h6.465c1.131,0,2.047-0.316,2.748-0.949c0.7-0.633,1.05-1.421,1.05-2.363c0-0.971-0.343-1.766-1.03-2.385
			c-0.687-0.62-1.556-0.93-2.606-0.93H133.117z"/>
	</g>
	<g>
		<defs>
			<rect id="SVGID_11_" x="305.592" y="-212.756" width="648" height="468"/>
		</defs>
		<clipPath id="SVGID_12_">
			<use xlink:href="#SVGID_11_"  overflow="visible"/>
		</clipPath>
		<path clip-path="url(#SVGID_12_)" fill="#FFB321" d="M425.337,65.795c0,0.881-0.146,1.667-0.439,2.363
			c-0.293,0.695-0.701,1.287-1.223,1.771c-0.522,0.485-1.131,0.853-1.828,1.101c-0.696,0.247-1.447,0.37-2.254,0.37
			c-1.832,0-3.209-0.458-4.135-1.373c-0.926-0.916-1.389-2.208-1.389-3.875h3.078c0,0.77,0.215,1.359,0.646,1.771
			c0.43,0.412,1.084,0.618,1.963,0.618c0.293,0,0.578-0.063,0.853-0.192c0.274-0.127,0.519-0.307,0.728-0.535
			c0.211-0.229,0.381-0.508,0.508-0.838c0.129-0.33,0.192-0.705,0.192-1.127v-2.033c-0.237,0.568-0.668,1.008-1.292,1.318
			c-0.623,0.312-1.318,0.467-2.088,0.467c-0.659,0-1.27-0.104-1.827-0.314s-1.044-0.518-1.457-0.921
			c-0.411-0.401-0.731-0.879-0.961-1.429c-0.229-0.551-0.344-1.172-0.344-1.868v-8.134h3.297v7.639c0,1.559,0.706,2.336,2.116,2.336
			c0.77,0,1.387-0.221,1.854-0.659c0.467-0.44,0.701-0.999,0.701-1.677v-7.639h3.297v12.859H425.337z M412.751,65.467h-3.297V48.374
			h3.297V65.467z M408.218,51.452h-3.297v-3.078h3.297V51.452z M408.218,65.467h-3.297V52.936h3.297V65.467z M388.79,54.776
			c0.422-0.824,0.93-1.392,1.525-1.703s1.305-0.468,2.13-0.468c0.843,0,1.517,0.15,2.021,0.453s0.994,0.819,1.469,1.553
			c0.66-1.338,1.787-2.006,3.38-2.006c0.623,0,1.2,0.109,1.731,0.33c0.53,0.22,0.983,0.518,1.359,0.893
			c0.376,0.376,0.669,0.82,0.879,1.333c0.211,0.513,0.316,1.054,0.316,1.621v8.685h-3.242v-7.584c0-0.771-0.18-1.389-0.536-1.854
			c-0.356-0.468-0.829-0.701-1.416-0.701c-0.604,0-1.108,0.252-1.511,0.756c-0.403,0.504-0.604,1.14-0.604,1.909v7.475h-3.298
			v-7.529c0-1.008-0.151-1.68-0.452-2.02c-0.303-0.339-0.812-0.509-1.525-0.509c-1.355,0-2.033,0.815-2.033,2.446v7.611h-3.297
			V52.936h3.105v1.841H388.79z M379.035,52.605c1.777,0,3.11,0.422,3.998,1.265c0.89,0.843,1.333,2.069,1.333,3.683v7.914h-3.078
			c-0.037-0.146-0.072-0.304-0.109-0.469c-0.037-0.164-0.064-0.348-0.084-0.549c-0.402,0.421-0.924,0.736-1.565,0.947
			s-1.383,0.315-2.226,0.315c-1.265,0-2.276-0.312-3.037-0.935c-0.76-0.623-1.141-1.483-1.141-2.583c0-0.86,0.143-1.548,0.426-2.062
			c0.285-0.513,0.683-0.916,1.195-1.209c0.514-0.293,1.122-0.513,1.827-0.658c0.705-0.146,1.47-0.275,2.294-0.385
			c0.659-0.093,1.178-0.238,1.553-0.439c0.375-0.202,0.562-0.486,0.562-0.854c0-0.476-0.221-0.832-0.66-1.07
			s-0.925-0.357-1.456-0.357c-0.586,0-1.075,0.17-1.47,0.509s-0.627,0.792-0.701,1.359h-3.16c0.11-1.392,0.586-2.478,1.43-3.257
			C375.808,52.994,377.167,52.605,379.035,52.605z M381.069,59.338c-0.33,0.274-0.907,0.495-1.73,0.659
			c-1.136,0.22-1.906,0.481-2.309,0.783c-0.402,0.303-0.604,0.72-0.604,1.25c0,0.935,0.494,1.401,1.483,1.401
			c0.421,0,0.829-0.06,1.224-0.179c0.394-0.118,0.737-0.298,1.03-0.536c0.294-0.238,0.526-0.539,0.701-0.906
			c0.174-0.366,0.261-0.787,0.261-1.265c0-0.146-0.004-0.348-0.014-0.604C381.103,59.686,381.087,59.484,381.069,59.338z
			 M372.688,51.534h-8.491v3.819h7.419v2.994h-7.419v7.117h-3.545V48.566h12.036V51.534z"/>
	</g>
	<g>
		<defs>
			<rect id="SVGID_13_" x="3.001" y="-116" width="648" height="468"/>
		</defs>
		<clipPath id="SVGID_14_">
			<use xlink:href="#SVGID_13_"  overflow="visible"/>
		</clipPath>
		<path clip-path="url(#SVGID_14_)" fill="#FFC433" d="M380.997,141.002c0.294-0.533,0.69-0.942,1.187-1.229
			c0.498-0.287,1.131-0.431,1.902-0.431c0.462,0,0.887,0.069,1.271,0.209c0.385,0.142,0.718,0.345,0.998,0.609
			c0.279,0.268,0.5,0.6,0.662,0.998c0.16,0.398,0.241,0.858,0.241,1.376v6.642h-2.543v-5.801c0-0.742-0.123-1.242-0.368-1.502
			c-0.244-0.26-0.668-0.389-1.271-0.389c-1.317,0-1.976,0.734-1.976,2.206v5.483h-2.521v-9.582h2.417L380.997,141.002
			L380.997,141.002z M372.906,139.34c0.757,0,1.436,0.119,2.039,0.357c0.602,0.238,1.113,0.577,1.533,1.02
			c0.42,0.44,0.744,0.974,0.967,1.598c0.225,0.623,0.336,1.312,0.336,2.068c0,0.758-0.114,1.446-0.346,2.069
			c-0.231,0.624-0.558,1.156-0.978,1.599c-0.42,0.44-0.933,0.779-1.534,1.019c-0.604,0.238-1.275,0.356-2.018,0.356
			c-0.771,0-1.461-0.121-2.069-0.366c-0.608-0.246-1.125-0.589-1.544-1.03c-0.42-0.441-0.743-0.975-0.967-1.598
			c-0.225-0.622-0.336-1.307-0.336-2.049c0-0.756,0.115-1.441,0.347-2.06c0.231-0.616,0.558-1.146,0.978-1.586
			s0.936-0.784,1.545-1.03C371.467,139.463,372.15,139.34,372.906,139.34z M372.906,141.484c-1.541,0-2.311,0.966-2.311,2.898
			c0,1.947,0.771,2.922,2.311,2.922c1.541,0,2.312-0.975,2.312-2.922C375.218,142.45,374.447,141.484,372.906,141.484z
			 M367.254,138.459h-2.521v-2.354h2.521V138.459z M367.254,149.174h-2.521v-9.582h2.521V149.174z M363.725,141.4h-5.274v3.95
			c0,0.603,0.112,1.067,0.336,1.397c0.224,0.328,0.595,0.492,1.112,0.492c0.504,0,0.877-0.161,1.115-0.482
			c0.237-0.321,0.356-0.785,0.356-1.388v-2.5h2.354v2.753c0,0.504-0.074,0.987-0.222,1.449s-0.378,0.869-0.692,1.219
			c-0.315,0.352-0.719,0.631-1.209,0.842c-0.49,0.209-1.072,0.314-1.744,0.314c-0.699,0-1.295-0.105-1.785-0.314
			c-0.49-0.211-0.893-0.49-1.209-0.842c-0.314-0.35-0.545-0.757-0.692-1.219s-0.221-0.952-0.221-1.471v-8.594h2.5v2.584h5.274V141.4
			L363.725,141.4z M350.863,139.34c1.359,0,2.379,0.322,3.058,0.967c0.681,0.646,1.019,1.584,1.019,2.816v6.051h-2.353
			c-0.028-0.111-0.056-0.23-0.084-0.356s-0.049-0.267-0.063-0.42c-0.308,0.321-0.707,0.563-1.197,0.726
			c-0.49,0.16-1.059,0.241-1.702,0.241c-0.968,0-1.741-0.237-2.322-0.715s-0.872-1.136-0.872-1.976c0-0.658,0.108-1.185,0.326-1.575
			c0.217-0.394,0.521-0.701,0.914-0.925c0.393-0.226,0.857-0.394,1.396-0.506c0.541-0.11,1.125-0.209,1.756-0.293
			c0.504-0.07,0.9-0.183,1.187-0.336c0.287-0.154,0.431-0.371,0.431-0.652c0-0.363-0.168-0.637-0.504-0.818
			c-0.336-0.184-0.707-0.273-1.113-0.273c-0.448,0-0.822,0.131-1.125,0.39c-0.301,0.259-0.479,0.604-0.535,1.04h-2.417
			c0.084-1.064,0.448-1.896,1.093-2.49C348.398,139.639,349.436,139.34,350.863,139.34z M352.419,144.489
			c-0.252,0.21-0.692,0.378-1.323,0.504c-0.869,0.168-1.457,0.368-1.766,0.599c-0.309,0.231-0.462,0.551-0.462,0.957
			c0,0.715,0.378,1.071,1.134,1.071c0.322,0,0.634-0.046,0.936-0.137c0.301-0.091,0.563-0.228,0.787-0.41
			c0.225-0.182,0.403-0.413,0.536-0.692c0.134-0.28,0.199-0.604,0.199-0.967c0-0.111-0.003-0.267-0.01-0.463
			C352.443,144.756,352.434,144.601,352.419,144.489z M334.264,141.002c0.322-0.632,0.711-1.064,1.166-1.304
			c0.456-0.237,1-0.356,1.628-0.356c0.645,0,1.158,0.115,1.545,0.347c0.385,0.231,0.76,0.627,1.123,1.188
			c0.504-1.023,1.366-1.535,2.584-1.535c0.477,0,0.918,0.084,1.324,0.252c0.407,0.168,0.754,0.396,1.04,0.684
			c0.287,0.287,0.513,0.627,0.673,1.02c0.16,0.394,0.241,0.807,0.241,1.239v6.642h-2.479v-5.801c0-0.588-0.137-1.061-0.409-1.418
			c-0.273-0.356-0.634-0.535-1.082-0.535c-0.462,0-0.849,0.191-1.156,0.578c-0.308,0.385-0.462,0.871-0.462,1.459v5.717h-2.521
			v-5.758c0-0.771-0.115-1.285-0.347-1.545s-0.62-0.389-1.166-0.389c-1.037,0-1.555,0.623-1.555,1.87v5.819h-2.521v-9.582h2.375
			L334.264,141.002L334.264,141.002z M330.944,138.459h-2.522v-2.354h2.522V138.459z M330.944,149.174h-2.522v-9.582h2.522V149.174z
			 M321.152,141.002c0.294-0.533,0.69-0.942,1.187-1.229c0.498-0.287,1.131-0.431,1.902-0.431c0.462,0,0.886,0.069,1.271,0.209
			c0.385,0.142,0.718,0.345,0.998,0.609c0.28,0.268,0.501,0.6,0.662,0.998s0.242,0.858,0.242,1.376v6.642h-2.542v-5.801
			c0-0.742-0.123-1.242-0.368-1.502s-0.669-0.389-1.271-0.389c-1.317,0-1.975,0.734-1.975,2.206v5.483h-2.522v-9.582h2.417
			L321.152,141.002L321.152,141.002z M318.168,149.174h-2.942l-0.819-2.668h-4.77l-0.903,2.668h-2.858l4.602-12.922h3.131
			L318.168,149.174z M311.991,139.151l-1.639,5.147h3.278l-1.618-5.147H311.991z"/>
	</g>
	<g>
		<defs>
			<rect id="SVGID_15_" x="-11.397" y="-116" width="648" height="468"/>
		</defs>
		<clipPath id="SVGID_16_">
			<use xlink:href="#SVGID_15_"  overflow="visible"/>
		</clipPath>
		<path clip-path="url(#SVGID_16_)" fill="#FFCC00" d="M101.915,129.098h-3.297v-3.078h3.297V129.098z M101.915,143.111h-3.297
			v-12.53h3.297V143.111z M97.848,129.18h-8.491v3.819h7.419v2.995h-7.419v7.117h-3.545v-16.899h12.036V129.18z M84.521,138.055
			h-6.567v-3.076h6.567V138.055z M77.046,129.098H73.75v-3.078h3.297V129.098z M77.046,143.111H73.75v-12.53h3.297V143.111z
			 M69.601,135.061c-0.092-0.642-0.353-1.146-0.783-1.512c-0.43-0.365-0.957-0.55-1.58-0.55c-0.348,0-0.678,0.06-0.989,0.179
			s-0.582,0.32-0.811,0.604s-0.412,0.659-0.549,1.126c-0.138,0.468-0.206,1.04-0.206,1.718c0,1.374,0.247,2.392,0.742,3.05
			c0.495,0.66,1.062,0.989,1.704,0.989s1.191-0.179,1.648-0.535c0.458-0.356,0.724-0.875,0.797-1.553h3.325
			c-0.092,0.731-0.298,1.396-0.618,1.991c-0.321,0.597-0.738,1.108-1.25,1.539c-0.513,0.431-1.099,0.761-1.759,0.99
			c-0.659,0.229-1.364,0.342-2.116,0.342c-0.861,0-1.639-0.142-2.335-0.426c-0.696-0.283-1.301-0.705-1.813-1.264
			c-0.513-0.559-0.907-1.26-1.182-2.104c-0.275-0.842-0.412-1.821-0.412-2.938c0-1.118,0.142-2.084,0.426-2.899
			c0.284-0.814,0.678-1.482,1.182-2.006c0.504-0.522,1.117-0.91,1.841-1.168c0.724-0.257,1.525-0.385,2.404-0.385
			c1.667,0,3,0.432,3.998,1.292c0.999,0.86,1.553,2.033,1.663,3.517h-3.327V135.061z M56.877,131.213
			c-0.073-0.824-0.417-1.456-1.03-1.896c-0.614-0.438-1.388-0.658-2.322-0.658c-0.824,0-1.53,0.184-2.116,0.55
			s-0.879,0.86-0.879,1.483c0,0.514,0.201,0.93,0.604,1.25c0.403,0.32,1.072,0.592,2.006,0.812c0.751,0.183,1.406,0.349,1.965,0.494
			s1.053,0.284,1.484,0.412c0.43,0.129,0.815,0.252,1.154,0.371c0.339,0.118,0.664,0.252,0.976,0.397
			c0.641,0.312,1.149,0.762,1.525,1.348s0.563,1.347,0.563,2.279c0,0.861-0.169,1.631-0.508,2.31
			c-0.339,0.678-0.797,1.255-1.374,1.729c-0.577,0.478-1.25,0.844-2.02,1.1c-0.77,0.258-1.594,0.386-2.473,0.386
			c-4.891,0-7.392-1.888-7.501-5.66h3.407c0.018,0.879,0.366,1.565,1.044,2.062c0.678,0.494,1.539,0.742,2.583,0.742
			c0.439,0,0.866-0.052,1.278-0.151c0.412-0.101,0.779-0.247,1.099-0.439c0.32-0.192,0.572-0.422,0.756-0.688
			c0.183-0.266,0.274-0.553,0.274-0.864c0-1.008-0.87-1.722-2.61-2.144c-1.465-0.349-2.574-0.646-3.325-0.894
			c-0.751-0.248-1.292-0.444-1.621-0.591c-0.879-0.403-1.521-0.926-1.924-1.566c-0.403-0.642-0.604-1.455-0.604-2.445
			c0-0.732,0.138-1.42,0.412-2.062c0.275-0.642,0.673-1.194,1.195-1.662c0.522-0.467,1.173-0.838,1.951-1.112
			c0.778-0.274,1.671-0.412,2.679-0.412c0.934,0,1.804,0.133,2.61,0.397c0.806,0.265,1.511,0.638,2.116,1.113
			s1.085,1.053,1.443,1.731c0.357,0.678,0.554,1.438,0.591,2.279H56.877z"/>
	</g>
	<g>
		<defs>
			<rect id="SVGID_17_" x="-23.105" y="-129.2" width="648" height="468"/>
		</defs>
		<clipPath id="SVGID_18_">
			<use xlink:href="#SVGID_17_"  overflow="visible"/>
		</clipPath>
		<path clip-path="url(#SVGID_18_)" fill="#FFCC00" d="M52.833,107.86c0.045,0.771,0.271,1.389,0.679,1.855
			c0.408,0.467,0.951,0.701,1.629,0.701c0.438,0,0.83-0.105,1.177-0.316s0.573-0.49,0.679-0.836h2.806
			c-0.317,1.055-0.875,1.869-1.675,2.442c-0.799,0.573-1.75,0.86-2.851,0.86c-3.439,0-5.16-1.871-5.16-5.612
			c0-1.599,0.43-2.874,1.29-3.824c0.86-0.951,2.089-1.426,3.688-1.426c3.229,0,4.843,2.052,4.843,6.155H52.833L52.833,107.86z
			 M57.132,106.142c-0.03-0.77-0.252-1.339-0.667-1.708c-0.415-0.369-0.894-0.555-1.437-0.555c-0.558,0-1.033,0.196-1.426,0.588
			c-0.392,0.393-0.618,0.951-0.679,1.675H57.132z M37.06,103.494c0.347-0.679,0.766-1.146,1.256-1.403
			c0.49-0.257,1.075-0.385,1.754-0.385c0.694,0,1.248,0.125,1.663,0.374s0.818,0.675,1.21,1.278
			c0.543-1.101,1.471-1.652,2.784-1.652c0.513,0,0.988,0.091,1.425,0.271c0.438,0.181,0.811,0.426,1.12,0.735
			c0.31,0.31,0.551,0.675,0.724,1.098c0.174,0.422,0.26,0.868,0.26,1.335v7.151h-2.67v-6.246c0-0.633-0.147-1.143-0.441-1.527
			s-0.683-0.577-1.166-0.577c-0.498,0-0.913,0.208-1.245,0.623s-0.498,0.939-0.498,1.573v6.155H40.52v-6.201
			c0-0.83-0.125-1.384-0.373-1.663c-0.249-0.279-0.667-0.419-1.256-0.419c-1.117,0-1.675,0.671-1.675,2.015v6.269h-2.715v-10.319
			h2.557v1.516H37.06z M33.484,100.756h-2.715v-2.535h2.715V100.756z M33.484,112.297h-2.715v-10.319h2.715V112.297z
			 M30.135,104.512c-0.256-0.045-0.505-0.068-0.747-0.068c-1.675,0-2.512,0.83-2.512,2.489v5.363h-2.715v-10.319h2.557v1.245
			c0.226-0.347,0.46-0.619,0.701-0.814c0.241-0.196,0.49-0.347,0.747-0.453c0.257-0.105,0.521-0.17,0.792-0.192
			c0.272-0.022,0.543-0.034,0.815-0.034h0.362V104.512z M20.699,102.951c-0.196-0.785-0.573-1.399-1.131-1.844
			c-0.559-0.445-1.185-0.667-1.878-0.667c-0.558,0-1.056,0.121-1.494,0.362c-0.438,0.241-0.811,0.581-1.12,1.018
			c-0.309,0.438-0.543,0.954-0.701,1.55c-0.159,0.596-0.238,1.256-0.238,1.98c0,0.709,0.079,1.361,0.238,1.958
			c0.158,0.596,0.384,1.108,0.679,1.538c0.294,0.431,0.649,0.771,1.063,1.019c0.415,0.25,0.886,0.373,1.415,0.373
			c0.86,0,1.554-0.232,2.082-0.7c0.528-0.468,0.89-1.14,1.086-2.015h2.919c-0.151,0.799-0.396,1.521-0.735,2.16
			c-0.339,0.643-0.762,1.192-1.267,1.652c-0.505,0.46-1.094,0.814-1.765,1.062c-0.671,0.25-1.415,0.373-2.229,0.373
			c-0.905,0-1.75-0.153-2.535-0.463c-0.784-0.31-1.467-0.771-2.048-1.381c-0.581-0.611-1.033-1.369-1.357-2.273
			c-0.325-0.905-0.487-1.954-0.487-3.146c0-1.177,0.151-2.232,0.453-3.168c0.302-0.936,0.732-1.731,1.29-2.387
			c0.558-0.657,1.237-1.158,2.037-1.505c0.799-0.347,1.697-0.521,2.693-0.521c0.875,0,1.663,0.132,2.365,0.396
			c0.701,0.264,1.305,0.622,1.81,1.075c0.505,0.453,0.909,0.984,1.211,1.595c0.302,0.611,0.49,1.264,0.565,1.958L20.699,102.951
			L20.699,102.951z"/>
	</g>
	<g>
		<defs>
			<rect id="SVGID_19_" x="-72.83" y="-129.2" width="648" height="468"/>
		</defs>
		<clipPath id="SVGID_20_">
			<use xlink:href="#SVGID_19_"  overflow="visible"/>
		</clipPath>
		<path clip-path="url(#SVGID_20_)" fill="#FFCC00" d="M173.294,122.752c-0.238-0.042-0.469-0.062-0.693-0.062
			c-1.555,0-2.333,0.771-2.333,2.312v4.979h-2.521v-9.582h2.375v1.155c0.21-0.321,0.427-0.573,0.651-0.757
			c0.224-0.182,0.455-0.322,0.693-0.42c0.238-0.1,0.483-0.158,0.735-0.18c0.252-0.021,0.504-0.03,0.756-0.03h0.336L173.294,122.752
			L173.294,122.752z M160.371,125.862c0.042,0.713,0.252,1.287,0.63,1.723s0.882,0.65,1.513,0.65c0.406,0,0.771-0.098,1.093-0.293
			c0.322-0.197,0.532-0.455,0.63-0.777h2.605c-0.294,0.98-0.812,1.736-1.555,2.27c-0.743,0.532-1.625,0.799-2.647,0.799
			c-3.194,0-4.791-1.738-4.791-5.211c0-1.486,0.399-2.67,1.198-3.552c0.798-0.883,1.94-1.323,3.425-1.323
			c2.998,0,4.497,1.904,4.497,5.715H160.371L160.371,125.862z M164.363,124.265c-0.028-0.714-0.234-1.242-0.62-1.586
			c-0.385-0.344-0.83-0.515-1.334-0.515c-0.518,0-0.959,0.182-1.324,0.546c-0.365,0.363-0.574,0.883-0.63,1.555H164.363z
			 M157.051,129.981h-2.521v-13.07h2.521V129.981z M153.521,129.981H151v-13.07h2.521V129.981z M150.054,119.264h-2.521v-2.354
			h2.521V119.264z M150.054,129.981h-2.521v-9.582h2.521V129.981z M146.944,122.752c-0.238-0.042-0.469-0.062-0.693-0.062
			c-1.555,0-2.333,0.771-2.333,2.312v4.979h-2.521v-9.582h2.375v1.155c0.21-0.321,0.427-0.573,0.651-0.757
			c0.224-0.182,0.456-0.322,0.693-0.42c0.238-0.1,0.483-0.158,0.736-0.18c0.252-0.021,0.504-0.03,0.756-0.03h0.336V122.752z
			 M134.232,121.659c0.196-0.435,0.557-0.795,1.082-1.082s1.11-0.432,1.754-0.432c0.98,0,1.779,0.271,2.396,0.811
			c0.617,0.539,0.925,1.292,0.925,2.259v6.767h-2.543v-5.927c0-0.729-0.126-1.226-0.378-1.491c-0.252-0.267-0.672-0.398-1.261-0.398
			c-0.63,0-1.117,0.228-1.46,0.683c-0.343,0.455-0.515,1.005-0.515,1.649v5.484h-2.521v-13.07h2.521V121.659L134.232,121.659z
			 M131.122,119.327h-3.909v10.652h-2.71v-10.652h-3.887v-2.271h10.506V119.327z"/>
	</g>
	<g>
		<defs>
			<rect id="SVGID_21_" x="-264.679" y="-97.896" width="647.999" height="468"/>
		</defs>
		<clipPath id="SVGID_22_">
			<use xlink:href="#SVGID_21_"  overflow="visible"/>
		</clipPath>
		<path clip-path="url(#SVGID_22_)" fill="#FFB321" d="M37.143,158.238c0,0.311-0.052,0.588-0.155,0.834
			c-0.104,0.245-0.248,0.454-0.432,0.625c-0.184,0.172-0.399,0.301-0.645,0.389s-0.511,0.132-0.795,0.132
			c-0.646,0-1.133-0.162-1.46-0.485c-0.326-0.322-0.49-0.779-0.49-1.367h1.086c0,0.271,0.076,0.479,0.228,0.625
			c0.152,0.146,0.383,0.219,0.693,0.219c0.104,0,0.204-0.021,0.301-0.067c0.097-0.045,0.183-0.108,0.257-0.188
			c0.074-0.08,0.134-0.18,0.179-0.295c0.045-0.117,0.068-0.25,0.068-0.397v-0.718c-0.084,0.199-0.236,0.354-0.456,0.465
			c-0.22,0.109-0.466,0.164-0.737,0.164c-0.232,0-0.448-0.036-0.645-0.11c-0.197-0.074-0.369-0.183-0.514-0.325
			c-0.146-0.142-0.259-0.311-0.339-0.504c-0.081-0.193-0.122-0.414-0.122-0.659v-2.87h1.164v2.695c0,0.55,0.249,0.824,0.747,0.824
			c0.271,0,0.49-0.077,0.655-0.232c0.165-0.154,0.247-0.353,0.247-0.592v-2.695h1.164L37.143,158.238L37.143,158.238z
			 M32.895,154.785c-0.11-0.02-0.216-0.029-0.32-0.029c-0.718,0-1.077,0.356-1.077,1.068v2.299h-1.164v-4.424h1.096v0.533
			c0.097-0.148,0.197-0.265,0.301-0.35c0.104-0.084,0.21-0.148,0.32-0.193s0.223-0.072,0.339-0.082
			c0.117-0.01,0.233-0.015,0.35-0.015h0.155V154.785z M26.93,156.221c0.02,0.33,0.117,0.595,0.291,0.795
			c0.175,0.201,0.407,0.301,0.698,0.301c0.188,0,0.355-0.045,0.504-0.136s0.246-0.21,0.291-0.358h1.203
			c-0.136,0.452-0.375,0.803-0.718,1.047c-0.343,0.246-0.75,0.369-1.222,0.369c-1.474,0-2.211-0.802-2.211-2.404
			c0-0.687,0.184-1.231,0.553-1.641c0.369-0.406,0.896-0.609,1.581-0.609c1.384,0,2.076,0.879,2.076,2.638L26.93,156.221
			L26.93,156.221z M28.773,155.483c-0.013-0.329-0.108-0.573-0.286-0.731c-0.178-0.158-0.383-0.237-0.616-0.237
			c-0.239,0-0.443,0.084-0.611,0.252c-0.168,0.169-0.265,0.407-0.291,0.718L28.773,155.483L28.773,155.483z M25.398,154.533h-2.434
			v1.823c0,0.278,0.052,0.493,0.155,0.646c0.104,0.151,0.275,0.229,0.514,0.229c0.233,0,0.404-0.074,0.514-0.225
			c0.11-0.147,0.165-0.36,0.165-0.639v-1.154h1.086v1.271c0,0.231-0.034,0.456-0.102,0.669c-0.068,0.215-0.174,0.401-0.32,0.562
			c-0.146,0.162-0.332,0.291-0.558,0.389s-0.495,0.146-0.805,0.146c-0.323,0-0.598-0.049-0.824-0.146
			c-0.226-0.098-0.412-0.227-0.558-0.389c-0.146-0.161-0.252-0.35-0.32-0.562c-0.068-0.213-0.102-0.439-0.102-0.679v-3.968h1.154
			v1.193h2.434L25.398,154.533L25.398,154.533z M20.248,155.037c-0.058-0.388-0.32-0.58-0.785-0.58c-0.188,0-0.351,0.039-0.49,0.121
			c-0.139,0.08-0.209,0.186-0.209,0.314c0,0.174,0.239,0.311,0.718,0.406c0.698,0.156,1.145,0.277,1.338,0.369
			c0.472,0.22,0.708,0.564,0.708,1.037c0,0.504-0.179,0.89-0.538,1.153c-0.359,0.267-0.833,0.397-1.421,0.397
			c-0.291,0-0.564-0.036-0.819-0.111c-0.255-0.074-0.477-0.18-0.665-0.314s-0.336-0.3-0.446-0.49
			c-0.11-0.189-0.168-0.401-0.174-0.635h1.203c0,0.207,0.081,0.371,0.242,0.489c0.162,0.12,0.378,0.181,0.65,0.181
			c0.22,0,0.409-0.045,0.567-0.131c0.159-0.089,0.238-0.199,0.238-0.336c0-0.076-0.059-0.154-0.175-0.231
			c-0.116-0.078-0.294-0.144-0.533-0.194c-0.692-0.161-1.131-0.287-1.319-0.378c-0.472-0.22-0.708-0.569-0.708-1.048
			c0-0.193,0.039-0.381,0.116-0.562c0.078-0.181,0.194-0.341,0.349-0.479c0.155-0.141,0.351-0.251,0.587-0.335
			c0.236-0.084,0.516-0.126,0.839-0.126c0.258,0,0.501,0.035,0.727,0.105c0.227,0.071,0.422,0.172,0.587,0.301
			c0.165,0.131,0.297,0.287,0.397,0.472c0.101,0.185,0.157,0.386,0.17,0.604H20.248L20.248,155.037z M17.154,158.238
			c0,0.311-0.051,0.588-0.155,0.834c-0.104,0.245-0.248,0.454-0.432,0.625c-0.185,0.172-0.399,0.301-0.645,0.389
			s-0.511,0.132-0.795,0.132c-0.646,0-1.133-0.162-1.459-0.485c-0.326-0.322-0.49-0.779-0.49-1.367h1.086
			c0,0.271,0.076,0.479,0.228,0.625c0.152,0.146,0.383,0.219,0.694,0.219c0.103,0,0.204-0.021,0.3-0.067
			c0.097-0.045,0.183-0.108,0.257-0.188c0.074-0.08,0.134-0.18,0.179-0.295c0.045-0.117,0.068-0.25,0.068-0.397v-0.718
			c-0.084,0.199-0.236,0.354-0.456,0.465c-0.22,0.109-0.465,0.164-0.737,0.164c-0.233,0-0.448-0.036-0.645-0.11
			c-0.197-0.074-0.369-0.183-0.514-0.325c-0.146-0.142-0.259-0.311-0.34-0.504s-0.121-0.414-0.121-0.659v-2.87h1.164v2.695
			c0,0.55,0.249,0.824,0.747,0.824c0.271,0,0.49-0.077,0.655-0.232c0.165-0.154,0.247-0.353,0.247-0.592v-2.695h1.164V158.238
			L17.154,158.238z M12.742,158.123h-1.173v-4.084l-1.115,4.084H9.221l-1.105-4.064v4.064H6.952v-5.965h1.833l1.067,4.373h0.019
			l1.067-4.373h1.804V158.123L12.742,158.123z"/>
	</g>
	<g>
		<defs>
			<rect id="SVGID_23_" x="-100.164" y="-125.95" width="648" height="468"/>
		</defs>
		<clipPath id="SVGID_24_">
			<use xlink:href="#SVGID_23_"  overflow="visible"/>
		</clipPath>
		<path clip-path="url(#SVGID_24_)" fill="#FFC100" d="M300.143,158.349c0,0.155-0.024,0.294-0.076,0.417
			c-0.053,0.123-0.124,0.228-0.217,0.312c-0.093,0.087-0.199,0.15-0.322,0.195c-0.122,0.043-0.256,0.064-0.397,0.064
			c-0.323,0-0.566-0.081-0.729-0.242c-0.163-0.162-0.245-0.391-0.245-0.686h0.543c0,0.138,0.038,0.24,0.113,0.313
			c0.076,0.072,0.191,0.109,0.348,0.109c0.052,0,0.102-0.013,0.149-0.034c0.049-0.021,0.093-0.055,0.129-0.096
			c0.037-0.039,0.066-0.09,0.09-0.147c0.022-0.058,0.033-0.124,0.033-0.198v-0.358c-0.042,0.101-0.117,0.179-0.228,0.233
			s-0.232,0.082-0.369,0.082c-0.116,0-0.224-0.02-0.322-0.057c-0.098-0.037-0.184-0.091-0.257-0.162
			c-0.071-0.07-0.129-0.154-0.17-0.252c-0.04-0.098-0.061-0.207-0.061-0.33v-1.436h0.582v1.349c0,0.274,0.125,0.412,0.373,0.412
			c0.137,0,0.244-0.039,0.327-0.117c0.082-0.077,0.123-0.176,0.123-0.295v-1.349h0.582V158.349L300.143,158.349z M298.019,156.622
			c-0.055-0.01-0.107-0.016-0.159-0.016c-0.358,0-0.538,0.178-0.538,0.534v1.148h-0.582v-2.212h0.548v0.268
			c0.049-0.074,0.099-0.132,0.149-0.174c0.053-0.043,0.105-0.075,0.16-0.098c0.056-0.023,0.111-0.037,0.17-0.041
			c0.06-0.006,0.116-0.008,0.176-0.008h0.076V156.622z M295.564,156.021c0.313,0,0.55,0.075,0.705,0.225
			c0.157,0.147,0.235,0.365,0.235,0.648v1.396h-0.543c-0.007-0.025-0.013-0.053-0.02-0.082c-0.008-0.029-0.013-0.062-0.016-0.098
			c-0.071,0.074-0.163,0.131-0.275,0.168c-0.113,0.037-0.244,0.056-0.394,0.056c-0.224,0-0.401-0.056-0.536-0.165
			c-0.134-0.109-0.201-0.262-0.201-0.455c0-0.152,0.025-0.273,0.075-0.364s0.12-0.161,0.211-0.213s0.198-0.091,0.322-0.116
			c0.125-0.025,0.26-0.049,0.405-0.068c0.116-0.017,0.208-0.041,0.272-0.077c0.066-0.035,0.101-0.085,0.101-0.15
			c0-0.084-0.038-0.146-0.116-0.188c-0.077-0.041-0.163-0.062-0.257-0.062c-0.104,0-0.19,0.03-0.261,0.09
			c-0.069,0.061-0.109,0.141-0.122,0.24h-0.559c0.021-0.246,0.104-0.438,0.252-0.574
			C294.996,156.09,295.235,156.021,295.564,156.021z M295.924,157.209c-0.059,0.049-0.16,0.087-0.306,0.116
			c-0.2,0.039-0.336,0.084-0.407,0.139c-0.071,0.053-0.106,0.127-0.106,0.221c0,0.164,0.088,0.247,0.263,0.247
			c0.074,0,0.146-0.011,0.216-0.03c0.069-0.021,0.13-0.054,0.182-0.096c0.053-0.042,0.095-0.096,0.124-0.16
			c0.03-0.063,0.046-0.139,0.046-0.223c0-0.025-0.001-0.062-0.002-0.107C295.93,157.271,295.928,157.235,295.924,157.209z
			 M294.348,156.495h-1.217v0.912c0,0.14,0.025,0.246,0.077,0.322s0.138,0.114,0.258,0.114c0.116,0,0.202-0.038,0.257-0.112
			c0.056-0.074,0.082-0.181,0.082-0.318v-0.577h0.543v0.635c0,0.116-0.017,0.229-0.051,0.335s-0.087,0.2-0.16,0.281
			c-0.072,0.081-0.165,0.146-0.277,0.193c-0.113,0.049-0.247,0.072-0.402,0.072c-0.162,0-0.3-0.023-0.412-0.072
			c-0.113-0.049-0.206-0.112-0.279-0.193c-0.071-0.081-0.126-0.176-0.16-0.281c-0.032-0.105-0.051-0.22-0.051-0.34v-1.982h0.577
			v0.597h1.217L294.348,156.495L294.348,156.495z M290.876,156.403c0.068-0.123,0.159-0.218,0.274-0.283
			c0.113-0.066,0.261-0.1,0.438-0.1c0.106,0,0.204,0.016,0.293,0.049c0.089,0.031,0.166,0.078,0.23,0.141s0.115,0.139,0.152,0.23
			c0.037,0.09,0.057,0.197,0.057,0.316v1.532h-0.587v-1.339c0-0.172-0.028-0.286-0.085-0.346c-0.058-0.061-0.154-0.091-0.294-0.091
			c-0.304,0-0.455,0.17-0.455,0.509v1.267h-0.582v-2.212h0.558L290.876,156.403L290.876,156.403z M288.616,157.34
			c0.01,0.165,0.059,0.298,0.146,0.397c0.088,0.101,0.204,0.149,0.351,0.149c0.094,0,0.178-0.022,0.252-0.067
			c0.073-0.045,0.123-0.104,0.146-0.18h0.603c-0.068,0.227-0.188,0.401-0.359,0.523c-0.171,0.123-0.375,0.185-0.61,0.185
			c-0.736,0-1.105-0.401-1.105-1.203c0-0.342,0.093-0.614,0.275-0.819c0.186-0.202,0.448-0.306,0.791-0.306
			c0.691,0,1.037,0.44,1.037,1.319L288.616,157.34L288.616,157.34z M289.538,156.972c-0.007-0.165-0.055-0.287-0.145-0.365
			c-0.089-0.08-0.19-0.119-0.308-0.119c-0.12,0-0.222,0.041-0.306,0.125s-0.134,0.205-0.146,0.359H289.538z M285.236,156.403
			c0.073-0.146,0.164-0.246,0.27-0.301c0.104-0.055,0.23-0.082,0.376-0.082c0.148,0,0.269,0.026,0.356,0.079
			c0.089,0.054,0.175,0.146,0.259,0.274c0.116-0.236,0.314-0.354,0.597-0.354c0.11,0,0.212,0.02,0.307,0.059
			c0.094,0.039,0.174,0.092,0.239,0.158c0.065,0.064,0.118,0.145,0.155,0.233c0.037,0.091,0.056,0.187,0.056,0.286v1.532h-0.571
			v-1.339c0-0.135-0.032-0.244-0.096-0.326c-0.062-0.083-0.146-0.124-0.25-0.124c-0.105,0-0.194,0.045-0.267,0.134
			s-0.106,0.201-0.106,0.337v1.318h-0.582v-1.328c0-0.179-0.025-0.297-0.08-0.356c-0.054-0.059-0.143-0.09-0.27-0.09
			c-0.238,0-0.358,0.145-0.358,0.432v1.344h-0.582v-2.211h0.549L285.236,156.403L285.236,156.403z M284.456,158.29h-0.553v-0.311
			c-0.146,0.245-0.374,0.368-0.685,0.368c-0.109,0-0.211-0.021-0.304-0.059s-0.171-0.095-0.237-0.167s-0.117-0.158-0.154-0.258
			c-0.037-0.099-0.057-0.209-0.057-0.332v-1.455h0.582v1.367c0,0.275,0.124,0.412,0.373,0.412c0.148,0,0.262-0.047,0.34-0.141
			c0.077-0.094,0.116-0.215,0.116-0.363v-1.275h0.577L284.456,158.29L284.456,158.29z M281.734,156.868
			c-0.016-0.111-0.062-0.2-0.138-0.267c-0.075-0.063-0.169-0.097-0.278-0.097c-0.062,0-0.119,0.011-0.176,0.031
			c-0.055,0.021-0.103,0.057-0.143,0.106s-0.073,0.116-0.098,0.198c-0.023,0.083-0.036,0.184-0.036,0.303
			c0,0.243,0.044,0.424,0.131,0.539c0.088,0.116,0.188,0.174,0.301,0.174c0.113,0,0.21-0.031,0.291-0.094s0.128-0.154,0.142-0.273
			h0.586c-0.017,0.129-0.053,0.246-0.108,0.352c-0.058,0.105-0.13,0.195-0.222,0.271c-0.09,0.076-0.192,0.135-0.31,0.174
			c-0.116,0.041-0.241,0.062-0.374,0.062c-0.15,0-0.289-0.024-0.412-0.075c-0.123-0.05-0.229-0.123-0.32-0.223
			c-0.09-0.1-0.158-0.223-0.207-0.371s-0.072-0.322-0.072-0.52c0-0.196,0.023-0.367,0.074-0.512s0.119-0.263,0.209-0.354
			c0.089-0.092,0.197-0.161,0.324-0.206s0.27-0.067,0.425-0.067c0.294,0,0.528,0.075,0.706,0.229
			c0.176,0.152,0.272,0.357,0.293,0.619H281.734z M279.021,156.021c0.174,0,0.33,0.028,0.469,0.084
			c0.141,0.055,0.258,0.133,0.354,0.234s0.171,0.225,0.224,0.368c0.052,0.143,0.078,0.303,0.078,0.478
			c0,0.176-0.027,0.334-0.08,0.479c-0.055,0.145-0.129,0.267-0.227,0.369c-0.098,0.102-0.215,0.18-0.354,0.234
			c-0.14,0.055-0.295,0.082-0.465,0.082c-0.18,0-0.338-0.027-0.479-0.085c-0.142-0.057-0.259-0.136-0.356-0.237
			c-0.097-0.102-0.17-0.225-0.223-0.369c-0.052-0.144-0.077-0.301-0.077-0.473c0-0.175,0.026-0.333,0.079-0.475
			c0.055-0.143,0.129-0.266,0.227-0.366c0.098-0.103,0.216-0.183,0.355-0.237C278.688,156.05,278.846,156.021,279.021,156.021z
			 M279.021,156.516c-0.356,0-0.535,0.224-0.535,0.669c0,0.449,0.179,0.674,0.535,0.674c0.354,0,0.532-0.225,0.532-0.674
			C279.554,156.737,279.376,156.516,279.021,156.516z M276.372,155.309c0.204,0,0.39,0.032,0.558,0.099
			c0.17,0.066,0.314,0.164,0.438,0.289c0.123,0.127,0.219,0.279,0.285,0.461c0.068,0.182,0.104,0.386,0.104,0.61
			c0,0.228-0.031,0.435-0.093,0.621s-0.147,0.349-0.263,0.479c-0.112,0.133-0.248,0.236-0.404,0.311s-0.332,0.111-0.525,0.111h-1.25
			v-2.981H276.372z M275.824,157.78h0.52c0.274,0,0.473-0.082,0.594-0.25c0.121-0.166,0.183-0.42,0.183-0.764
			c0-0.336-0.063-0.576-0.191-0.723s-0.34-0.219-0.638-0.219h-0.467V157.78L275.824,157.78z"/>
	</g>
	<g>
		<defs>
			<rect id="SVGID_25_" x="3.001" y="-116" width="648" height="468"/>
		</defs>
		<clipPath id="SVGID_26_">
			<use xlink:href="#SVGID_25_"  overflow="visible"/>
		</clipPath>
		<path clip-path="url(#SVGID_26_)" fill="#FFC433" d="M268.105,142.926c0,0.104-0.017,0.196-0.052,0.278
			c-0.034,0.082-0.082,0.151-0.144,0.208c-0.062,0.058-0.133,0.102-0.215,0.13s-0.17,0.043-0.265,0.043
			c-0.216,0-0.378-0.054-0.487-0.161s-0.163-0.26-0.163-0.456h0.362c0,0.091,0.025,0.16,0.076,0.209
			c0.051,0.048,0.127,0.072,0.231,0.072c0.035,0,0.068-0.008,0.101-0.022c0.032-0.016,0.061-0.035,0.085-0.062
			c0.025-0.025,0.045-0.061,0.06-0.1c0.015-0.037,0.022-0.082,0.022-0.131v-0.24c-0.028,0.066-0.079,0.119-0.152,0.156
			c-0.073,0.035-0.155,0.055-0.246,0.055c-0.078,0-0.149-0.014-0.215-0.037c-0.065-0.025-0.123-0.062-0.171-0.108
			c-0.048-0.048-0.086-0.104-0.113-0.168s-0.041-0.138-0.041-0.22v-0.957h0.388v0.898c0,0.184,0.083,0.273,0.249,0.273
			c0.091,0,0.164-0.025,0.218-0.077c0.055-0.052,0.083-0.116,0.083-0.196v-0.898h0.388L268.105,142.926L268.105,142.926z
			 M265.677,141.605c0.03-0.065,0.086-0.121,0.167-0.166c0.081-0.043,0.171-0.065,0.27-0.065c0.151,0,0.274,0.042,0.369,0.124
			c0.095,0.083,0.142,0.199,0.142,0.348v1.041h-0.391v-0.91c0-0.112-0.02-0.188-0.058-0.229c-0.039-0.041-0.104-0.062-0.194-0.062
			c-0.097,0-0.172,0.035-0.225,0.104c-0.053,0.07-0.079,0.154-0.079,0.254v0.844h-0.388v-2.011h0.388L265.677,141.605
			L265.677,141.605z M264.112,141.413v0.185c0.039-0.078,0.092-0.135,0.158-0.17c0.067-0.035,0.152-0.054,0.255-0.054
			c0.108,0,0.202,0.021,0.281,0.063c0.08,0.043,0.147,0.103,0.201,0.176c0.054,0.072,0.094,0.156,0.12,0.252
			c0.026,0.095,0.039,0.193,0.039,0.298c0,0.112-0.013,0.214-0.04,0.308c-0.027,0.092-0.066,0.172-0.118,0.24
			c-0.052,0.066-0.115,0.12-0.191,0.158c-0.075,0.038-0.162,0.057-0.258,0.057c-0.091,0-0.175-0.018-0.254-0.052
			c-0.079-0.034-0.14-0.092-0.183-0.171v0.882h-0.385v-2.172H264.112L264.112,141.413z M264.429,141.707
			c-0.218,0-0.327,0.159-0.327,0.479c0,0.125,0.031,0.228,0.092,0.307c0.062,0.078,0.141,0.117,0.237,0.117
			c0.097,0,0.177-0.041,0.239-0.125c0.062-0.082,0.094-0.189,0.094-0.32C264.765,141.859,264.653,141.707,264.429,141.707z
			 M262.955,141.374c0.209,0,0.366,0.05,0.47,0.147c0.104,0.101,0.157,0.244,0.157,0.435v0.931h-0.362
			c-0.004-0.017-0.009-0.035-0.013-0.055s-0.007-0.041-0.01-0.064c-0.047,0.051-0.109,0.088-0.184,0.111
			c-0.076,0.023-0.163,0.037-0.262,0.037c-0.149,0-0.268-0.036-0.357-0.109c-0.089-0.074-0.134-0.175-0.134-0.305
			c0-0.102,0.017-0.182,0.05-0.242c0.033-0.06,0.08-0.107,0.141-0.143c0.06-0.034,0.132-0.061,0.215-0.077s0.173-0.032,0.27-0.045
			c0.078-0.011,0.139-0.028,0.183-0.052c0.044-0.024,0.066-0.059,0.066-0.102c0-0.056-0.026-0.098-0.078-0.126
			c-0.052-0.028-0.109-0.042-0.171-0.042c-0.069,0-0.126,0.02-0.173,0.061c-0.047,0.039-0.074,0.094-0.083,0.16h-0.372
			c0.013-0.164,0.069-0.291,0.168-0.384C262.575,141.419,262.735,141.374,262.955,141.374z M263.194,142.166
			c-0.039,0.032-0.107,0.059-0.204,0.078c-0.133,0.025-0.224,0.057-0.271,0.092c-0.047,0.035-0.071,0.084-0.071,0.146
			c0,0.109,0.058,0.164,0.174,0.164c0.05,0,0.098-0.006,0.144-0.021c0.046-0.015,0.086-0.035,0.121-0.063
			c0.035-0.026,0.062-0.062,0.083-0.105s0.031-0.094,0.031-0.148c0-0.018,0-0.041-0.001-0.07
			C263.198,142.207,263.196,142.184,263.194,142.166z M262.208,141.775c-0.037-0.008-0.072-0.01-0.106-0.01
			c-0.239,0-0.359,0.117-0.359,0.354v0.766h-0.388v-1.474h0.365v0.178c0.032-0.05,0.065-0.089,0.1-0.115
			c0.035-0.029,0.07-0.051,0.106-0.065c0.037-0.015,0.075-0.023,0.113-0.027c0.039-0.003,0.078-0.005,0.116-0.005h0.052
			L262.208,141.775L262.208,141.775z M261.2,142.902c0,0.109-0.019,0.207-0.057,0.293s-0.09,0.156-0.157,0.216
			c-0.067,0.058-0.145,0.103-0.233,0.131s-0.184,0.043-0.288,0.043s-0.198-0.015-0.285-0.042c-0.086-0.027-0.161-0.068-0.225-0.123
			c-0.063-0.054-0.113-0.118-0.149-0.195c-0.035-0.076-0.053-0.162-0.053-0.257h0.362c0,0.091,0.03,0.16,0.089,0.209
			c0.059,0.048,0.137,0.072,0.234,0.072c0.104,0,0.191-0.028,0.263-0.086c0.072-0.058,0.108-0.134,0.108-0.229v-0.244
			c-0.028,0.067-0.078,0.119-0.15,0.156c-0.072,0.036-0.157,0.055-0.253,0.055c-0.121,0-0.223-0.021-0.306-0.064
			s-0.15-0.1-0.202-0.169c-0.052-0.069-0.089-0.151-0.111-0.243c-0.023-0.092-0.034-0.186-0.034-0.281
			c0-0.115,0.017-0.22,0.05-0.312c0.033-0.094,0.079-0.176,0.137-0.242c0.059-0.068,0.127-0.12,0.206-0.156
			c0.079-0.037,0.162-0.056,0.25-0.056c0.181,0,0.319,0.074,0.414,0.224v-0.185h0.388v1.487H261.2z M260.492,141.714
			c-0.222,0-0.333,0.149-0.333,0.449c0,0.131,0.031,0.235,0.094,0.313c0.062,0.076,0.142,0.115,0.239,0.115
			c0.097,0,0.176-0.035,0.238-0.109c0.061-0.073,0.092-0.172,0.092-0.297C260.821,141.871,260.711,141.714,260.492,141.714z
			 M258.911,141.374c0.116,0,0.221,0.019,0.313,0.056c0.092,0.036,0.171,0.088,0.236,0.156c0.064,0.066,0.114,0.148,0.148,0.245
			c0.035,0.097,0.052,0.202,0.052,0.319c0,0.115-0.018,0.222-0.053,0.317c-0.036,0.097-0.085,0.179-0.15,0.245
			c-0.064,0.068-0.143,0.12-0.236,0.157c-0.093,0.036-0.196,0.055-0.31,0.055c-0.119,0-0.225-0.019-0.319-0.057
			c-0.094-0.038-0.173-0.091-0.237-0.158c-0.065-0.067-0.114-0.149-0.149-0.246c-0.035-0.096-0.052-0.2-0.052-0.313
			c0-0.117,0.018-0.224,0.053-0.317c0.036-0.095,0.086-0.177,0.15-0.244c0.065-0.067,0.144-0.12,0.238-0.157
			C258.689,141.393,258.794,141.374,258.911,141.374z M258.911,141.704c-0.237,0-0.356,0.147-0.356,0.446s0.119,0.449,0.356,0.449
			c0.237,0,0.355-0.15,0.355-0.449C259.267,141.854,259.148,141.704,258.911,141.704z M258.041,141.238h-0.388v-0.362h0.388V141.238
			z M258.041,142.887h-0.388v-1.474h0.388V142.887z M256.917,140.898c0.183,0,0.329,0.049,0.436,0.146
			c0.108,0.099,0.162,0.229,0.162,0.397c0,0.189-0.081,0.314-0.242,0.375c0.097,0.035,0.172,0.095,0.225,0.179
			c0.053,0.084,0.079,0.185,0.079,0.3c0,0.184-0.06,0.328-0.181,0.434s-0.308,0.158-0.562,0.158h-0.896v-1.988H256.917
			L256.917,140.898z M256.337,141.245v0.43h0.504c0.082,0,0.147-0.019,0.197-0.055c0.05-0.037,0.074-0.091,0.074-0.162
			c0-0.075-0.021-0.13-0.064-0.163s-0.12-0.05-0.229-0.05H256.337z M256.337,142.016v0.532h0.527c0.091,0,0.165-0.026,0.222-0.081
			c0.057-0.054,0.085-0.121,0.085-0.203c0-0.087-0.031-0.148-0.092-0.188c-0.062-0.04-0.131-0.06-0.208-0.06H256.337z"/>
	</g>
	<g>
		<defs>
			<rect id="SVGID_27_" x="3.001" y="-116" width="648" height="468"/>
		</defs>
		<clipPath id="SVGID_28_">
			<use xlink:href="#SVGID_27_"  overflow="visible"/>
		</clipPath>
		<path clip-path="url(#SVGID_28_)" fill="#FFC433" d="M197.55,139.115h-0.812v0.607c0,0.092,0.017,0.164,0.052,0.215
			c0.034,0.052,0.092,0.076,0.171,0.076c0.078,0,0.135-0.024,0.171-0.074c0.037-0.049,0.055-0.121,0.055-0.213v-0.386h0.362v0.425
			c0,0.076-0.011,0.15-0.034,0.223c-0.022,0.07-0.058,0.134-0.106,0.188c-0.049,0.055-0.11,0.098-0.186,0.129
			c-0.075,0.033-0.165,0.049-0.268,0.049c-0.108,0-0.2-0.016-0.275-0.049c-0.076-0.031-0.138-0.074-0.186-0.129
			c-0.048-0.054-0.084-0.115-0.106-0.188c-0.023-0.071-0.034-0.146-0.034-0.227v-1.322h0.385v0.397h0.812L197.55,139.115
			L197.55,139.115z M196.263,139.199c-0.037-0.006-0.072-0.01-0.107-0.01c-0.239,0-0.359,0.119-0.359,0.354v0.767h-0.388v-1.474
			h0.365v0.179c0.032-0.051,0.066-0.09,0.1-0.117c0.035-0.027,0.07-0.049,0.107-0.064s0.074-0.023,0.113-0.027
			c0.039-0.002,0.078-0.005,0.117-0.005h0.052V139.199L196.263,139.199z M194.537,138.799c0.117,0,0.221,0.02,0.314,0.055
			c0.092,0.037,0.171,0.09,0.236,0.157c0.064,0.067,0.114,0.149,0.148,0.245c0.035,0.096,0.052,0.202,0.052,0.318
			c0,0.115-0.018,0.223-0.053,0.318c-0.036,0.096-0.085,0.178-0.15,0.246c-0.064,0.066-0.143,0.119-0.236,0.155
			c-0.093,0.037-0.196,0.056-0.311,0.056c-0.118,0-0.225-0.02-0.318-0.057c-0.094-0.038-0.173-0.091-0.237-0.158
			c-0.065-0.068-0.114-0.15-0.149-0.246s-0.052-0.201-0.052-0.314c0-0.116,0.018-0.223,0.053-0.316s0.086-0.177,0.15-0.244
			c0.065-0.068,0.144-0.121,0.238-0.158C194.315,138.816,194.42,138.799,194.537,138.799z M194.537,139.128
			c-0.237,0-0.355,0.149-0.355,0.446c0,0.3,0.119,0.449,0.355,0.449c0.237,0,0.356-0.149,0.356-0.449
			C194.893,139.277,194.774,139.128,194.537,139.128z M192.636,138.838v0.184c0.039-0.076,0.092-0.133,0.159-0.17
			c0.067-0.035,0.152-0.053,0.255-0.053c0.107,0,0.201,0.021,0.281,0.064s0.146,0.102,0.2,0.175c0.054,0.073,0.094,0.157,0.12,0.252
			s0.039,0.194,0.039,0.298c0,0.111-0.014,0.214-0.041,0.307c-0.027,0.094-0.066,0.174-0.118,0.242
			c-0.052,0.066-0.115,0.119-0.19,0.157c-0.076,0.037-0.162,0.058-0.259,0.058c-0.09,0-0.175-0.019-0.254-0.053
			c-0.079-0.033-0.14-0.092-0.183-0.172v0.883h-0.385v-2.172H192.636z M192.953,139.132c-0.218,0-0.327,0.159-0.327,0.479
			c0,0.125,0.031,0.227,0.092,0.306c0.062,0.078,0.141,0.117,0.238,0.117c0.097,0,0.177-0.041,0.239-0.124s0.094-0.189,0.094-0.321
			C193.289,139.283,193.177,139.132,192.953,139.132z M191.702,138.912c-0.009-0.098-0.049-0.172-0.121-0.225
			c-0.072-0.052-0.164-0.076-0.273-0.076c-0.097,0-0.18,0.021-0.249,0.063s-0.104,0.103-0.104,0.175
			c0,0.062,0.023,0.109,0.071,0.146c0.047,0.038,0.126,0.07,0.236,0.096c0.089,0.021,0.166,0.041,0.231,0.059
			c0.066,0.018,0.124,0.033,0.174,0.049c0.051,0.016,0.096,0.029,0.136,0.044c0.04,0.014,0.078,0.028,0.115,0.047
			c0.075,0.037,0.135,0.09,0.179,0.158c0.044,0.069,0.066,0.157,0.066,0.269c0,0.102-0.02,0.191-0.06,0.271
			s-0.094,0.146-0.162,0.203s-0.147,0.1-0.237,0.129c-0.091,0.031-0.188,0.046-0.291,0.046c-0.576,0-0.87-0.222-0.883-0.666h0.401
			c0.002,0.104,0.043,0.185,0.123,0.243c0.08,0.058,0.181,0.086,0.304,0.086c0.052,0,0.102-0.006,0.15-0.018
			c0.048-0.012,0.092-0.029,0.129-0.052c0.037-0.022,0.067-0.05,0.089-0.081s0.032-0.064,0.032-0.102
			c0-0.118-0.103-0.203-0.307-0.252c-0.172-0.041-0.303-0.076-0.391-0.105s-0.152-0.052-0.19-0.068
			c-0.104-0.049-0.179-0.109-0.227-0.186c-0.048-0.076-0.071-0.171-0.071-0.287c0-0.087,0.016-0.167,0.049-0.243
			c0.032-0.075,0.079-0.141,0.141-0.194c0.062-0.055,0.138-0.1,0.229-0.131c0.091-0.033,0.197-0.05,0.315-0.05
			c0.11,0,0.212,0.017,0.307,0.048c0.095,0.03,0.178,0.074,0.249,0.131c0.071,0.057,0.128,0.123,0.17,0.203s0.065,0.17,0.069,0.27
			H191.702z"/>
	</g>
	<g>
		<defs>
			<rect id="SVGID_29_" x="3.001" y="-116" width="648" height="468"/>
		</defs>
		<clipPath id="SVGID_30_">
			<use xlink:href="#SVGID_29_"  overflow="visible"/>
		</clipPath>
		<path clip-path="url(#SVGID_30_)" fill="#FFCC00" d="M401.13,153.497c-0.037-0.007-0.072-0.011-0.106-0.011
			c-0.239,0-0.358,0.119-0.358,0.355v0.766h-0.388v-1.474h0.364v0.179c0.032-0.051,0.065-0.09,0.101-0.117s0.069-0.049,0.106-0.063
			c0.036-0.016,0.074-0.024,0.112-0.028c0.039-0.002,0.078-0.004,0.117-0.004h0.052V153.497z M399.494,153.096
			c0.209,0,0.365,0.051,0.47,0.148c0.104,0.1,0.157,0.244,0.157,0.434v0.932h-0.362c-0.004-0.018-0.009-0.035-0.013-0.055
			c-0.005-0.021-0.008-0.041-0.01-0.064c-0.048,0.05-0.109,0.087-0.186,0.111c-0.076,0.023-0.162,0.037-0.262,0.037
			c-0.148,0-0.269-0.037-0.357-0.109c-0.089-0.073-0.134-0.176-0.134-0.305c0-0.102,0.018-0.183,0.05-0.242
			c0.033-0.061,0.08-0.107,0.142-0.143c0.061-0.035,0.132-0.061,0.215-0.078c0.083-0.017,0.173-0.031,0.271-0.045
			c0.077-0.011,0.139-0.027,0.184-0.052c0.044-0.024,0.065-0.058,0.065-0.101c0-0.057-0.025-0.099-0.078-0.127
			c-0.052-0.027-0.107-0.041-0.171-0.041c-0.068,0-0.127,0.02-0.173,0.06c-0.047,0.04-0.074,0.094-0.083,0.16h-0.372
			c0.015-0.164,0.069-0.291,0.169-0.384C399.114,153.143,399.273,153.096,399.494,153.096z M399.733,153.889
			c-0.039,0.031-0.107,0.059-0.204,0.077c-0.135,0.025-0.225,0.058-0.271,0.093c-0.047,0.034-0.071,0.084-0.071,0.146
			c0,0.109,0.06,0.164,0.176,0.164c0.05,0,0.098-0.008,0.144-0.021c0.047-0.014,0.087-0.035,0.121-0.062
			c0.035-0.027,0.062-0.062,0.083-0.105c0.021-0.044,0.03-0.094,0.03-0.148c0-0.018,0-0.041-0.002-0.071
			S399.735,153.904,399.733,153.889z M398.194,154.607h-0.401l-0.307-1.275h-0.008l-0.311,1.275h-0.388l-0.562-1.986h0.443
			l0.326,1.286l0.273-1.286h0.438l0.305,1.286l0.323-1.286h0.423L398.194,154.607z"/>
	</g>
	<g>
		<defs>
			<rect id="SVGID_31_" x="-51.264" y="-116" width="648" height="468"/>
		</defs>
		<clipPath id="SVGID_32_">
			<use xlink:href="#SVGID_31_"  overflow="visible"/>
		</clipPath>
		<path clip-path="url(#SVGID_32_)" fill="#FFB321" d="M49.38,80.528c0,0.052-0.009,0.099-0.024,0.14
			c-0.019,0.041-0.042,0.075-0.072,0.104c-0.031,0.028-0.066,0.05-0.107,0.063s-0.085,0.021-0.133,0.021
			c-0.106,0-0.188-0.027-0.243-0.081c-0.055-0.054-0.082-0.13-0.082-0.228H48.9c0,0.045,0.013,0.08,0.038,0.104
			c0.024,0.023,0.062,0.036,0.114,0.036c0.019,0,0.034-0.005,0.051-0.013c0.017-0.006,0.029-0.018,0.043-0.03
			c0.013-0.013,0.021-0.03,0.029-0.05s0.012-0.041,0.012-0.065v-0.12c-0.015,0.033-0.039,0.061-0.075,0.078
			c-0.037,0.018-0.078,0.027-0.123,0.027c-0.039,0-0.075-0.008-0.107-0.02c-0.032-0.013-0.062-0.029-0.086-0.055
			c-0.023-0.023-0.043-0.053-0.057-0.084c-0.014-0.032-0.021-0.068-0.021-0.109V79.77h0.194v0.449c0,0.092,0.041,0.138,0.124,0.138
			c0.046,0,0.082-0.015,0.109-0.039c0.026-0.026,0.041-0.06,0.041-0.099V79.77h0.193V80.528L49.38,80.528z M48.672,79.953
			c-0.019-0.003-0.036-0.005-0.054-0.005c-0.119,0-0.179,0.06-0.179,0.179v0.383h-0.194v-0.736h0.184v0.089
			c0.017-0.024,0.032-0.044,0.05-0.06c0.018-0.014,0.035-0.023,0.054-0.031s0.037-0.012,0.057-0.014
			c0.021-0.002,0.039-0.002,0.059-0.002h0.025L48.672,79.953L48.672,79.953z M47.809,79.754c0.059,0,0.109,0.008,0.156,0.026
			c0.046,0.019,0.085,0.045,0.117,0.078c0.033,0.034,0.059,0.075,0.075,0.123s0.025,0.103,0.025,0.159
			c0,0.059-0.01,0.111-0.026,0.158c-0.017,0.049-0.043,0.09-0.075,0.123c-0.032,0.034-0.071,0.061-0.118,0.078
			c-0.046,0.02-0.098,0.027-0.154,0.027c-0.061,0-0.112-0.01-0.159-0.028s-0.086-0.045-0.119-0.079
			c-0.032-0.033-0.057-0.074-0.074-0.121c-0.017-0.049-0.024-0.102-0.024-0.158s0.009-0.111,0.025-0.158
			c0.019-0.049,0.043-0.088,0.075-0.122s0.072-0.062,0.119-0.079S47.751,79.754,47.809,79.754z M47.809,79.918
			c-0.118,0-0.179,0.074-0.179,0.223c0,0.15,0.061,0.226,0.179,0.226s0.178-0.073,0.178-0.226
			C47.986,79.992,47.928,79.918,47.809,79.918z M47.369,79.911h-0.405v0.304c0,0.047,0.008,0.082,0.025,0.107
			c0.017,0.025,0.046,0.038,0.086,0.038c0.038,0,0.067-0.013,0.085-0.037c0.019-0.024,0.028-0.062,0.028-0.106v-0.191h0.181v0.212
			c0,0.039-0.006,0.076-0.017,0.11c-0.013,0.035-0.029,0.066-0.055,0.095c-0.024,0.028-0.056,0.049-0.093,0.063
			c-0.038,0.018-0.083,0.024-0.135,0.024c-0.054,0-0.101-0.008-0.137-0.024c-0.038-0.016-0.069-0.037-0.094-0.063
			c-0.023-0.027-0.043-0.06-0.054-0.095c-0.012-0.034-0.017-0.072-0.017-0.112v-0.661h0.191v0.199h0.405v0.138H47.369z
			 M46.511,79.995c-0.01-0.063-0.054-0.097-0.131-0.097c-0.03,0-0.059,0.007-0.082,0.021c-0.021,0.012-0.033,0.029-0.033,0.051
			c0,0.029,0.039,0.053,0.118,0.068c0.116,0.025,0.191,0.047,0.225,0.062c0.078,0.035,0.118,0.094,0.118,0.173
			c0,0.084-0.03,0.147-0.091,0.192c-0.06,0.043-0.139,0.065-0.236,0.065c-0.048,0-0.095-0.007-0.138-0.019
			c-0.042-0.014-0.078-0.03-0.109-0.053c-0.031-0.023-0.057-0.051-0.074-0.082c-0.019-0.031-0.028-0.066-0.029-0.105h0.2
			c0,0.033,0.015,0.062,0.041,0.082s0.062,0.029,0.108,0.029c0.036,0,0.066-0.008,0.094-0.021s0.04-0.033,0.04-0.057
			c0-0.014-0.01-0.025-0.029-0.038c-0.019-0.013-0.049-0.023-0.089-0.032c-0.115-0.027-0.188-0.048-0.22-0.062
			c-0.079-0.037-0.118-0.096-0.118-0.174c0-0.033,0.007-0.064,0.02-0.096c0.014-0.029,0.032-0.057,0.06-0.079
			c0.024-0.022,0.058-0.042,0.098-0.057c0.039-0.015,0.086-0.021,0.141-0.021c0.043,0,0.083,0.007,0.12,0.019
			c0.038,0.012,0.07,0.027,0.099,0.05c0.026,0.022,0.05,0.048,0.065,0.079c0.018,0.029,0.026,0.064,0.028,0.101H46.511z M46,79.684
			h-0.193v-0.18H46V79.684z M46,80.51h-0.193v-0.737H46V80.51z M45.735,80.51h-0.209v-0.446h-0.389v0.446h-0.209v-0.994h0.209v0.375
			h0.389v-0.375h0.209V80.51z"/>
	</g>
	<g>
		<defs>
			<rect id="SVGID_33_" x="3.001" y="-116" width="648" height="468"/>
		</defs>
		<clipPath id="SVGID_34_">
			<use xlink:href="#SVGID_33_"  overflow="visible"/>
		</clipPath>
		<path clip-path="url(#SVGID_34_)" fill="#FFC100" d="M122.395,135.536h-0.194v-1.005h0.194V135.536z M121.81,134.779
			c0.104,0,0.183,0.025,0.235,0.074c0.052,0.051,0.078,0.123,0.078,0.217v0.466h-0.181c-0.002-0.009-0.004-0.019-0.007-0.027
			c-0.002-0.01-0.004-0.021-0.005-0.032c-0.023,0.025-0.054,0.045-0.092,0.057c-0.038,0.013-0.082,0.019-0.131,0.019
			c-0.075,0-0.134-0.018-0.179-0.055c-0.045-0.036-0.067-0.087-0.067-0.151c0-0.051,0.009-0.092,0.025-0.121
			c0.017-0.029,0.04-0.055,0.07-0.07c0.03-0.019,0.066-0.03,0.107-0.039c0.041-0.01,0.086-0.018,0.135-0.022
			c0.039-0.006,0.069-0.015,0.091-0.026c0.022-0.01,0.033-0.027,0.033-0.049c0-0.028-0.013-0.05-0.039-0.063
			c-0.026-0.015-0.055-0.021-0.086-0.021c-0.034,0-0.063,0.01-0.086,0.028c-0.023,0.021-0.037,0.047-0.041,0.08h-0.186
			c0.006-0.081,0.035-0.146,0.084-0.19C121.62,134.803,121.7,134.779,121.81,134.779z M121.929,135.176
			c-0.02,0.018-0.053,0.029-0.102,0.039c-0.066,0.014-0.112,0.028-0.136,0.046c-0.023,0.019-0.035,0.044-0.035,0.074
			c0,0.056,0.029,0.082,0.087,0.082c0.025,0,0.049-0.004,0.072-0.011c0.023-0.008,0.043-0.018,0.061-0.031s0.031-0.032,0.041-0.055
			c0.01-0.021,0.016-0.045,0.016-0.073c0-0.009,0-0.021-0.001-0.035C121.931,135.195,121.93,135.186,121.929,135.176z
			 M121.237,135.062c-0.005-0.037-0.021-0.066-0.046-0.09c-0.025-0.021-0.056-0.031-0.093-0.031c-0.02,0-0.04,0.004-0.058,0.011
			s-0.034,0.019-0.047,0.036c-0.014,0.017-0.024,0.037-0.033,0.064c-0.008,0.028-0.012,0.062-0.012,0.102
			c0,0.082,0.015,0.142,0.043,0.181c0.029,0.038,0.062,0.058,0.1,0.058s0.07-0.011,0.097-0.031s0.042-0.051,0.047-0.092h0.195
			c-0.005,0.043-0.017,0.084-0.036,0.117c-0.019,0.035-0.043,0.065-0.074,0.092c-0.03,0.024-0.064,0.045-0.104,0.059
			c-0.039,0.013-0.08,0.02-0.124,0.02c-0.051,0-0.097-0.008-0.138-0.023s-0.076-0.042-0.106-0.074
			c-0.03-0.033-0.053-0.074-0.07-0.124c-0.016-0.05-0.024-0.106-0.024-0.173s0.008-0.123,0.025-0.171s0.04-0.087,0.069-0.118
			c0.03-0.03,0.066-0.053,0.108-0.068c0.042-0.015,0.09-0.021,0.142-0.021c0.098,0,0.176,0.025,0.235,0.076s0.092,0.119,0.098,0.205
			h-0.194V135.062z M120.696,134.712h-0.194v-0.181h0.194V134.712z M120.696,135.536h-0.194V134.8h0.194V135.536z M120.242,135.021
			c-0.01-0.063-0.053-0.097-0.131-0.097c-0.031,0-0.059,0.007-0.082,0.021s-0.035,0.031-0.035,0.053c0,0.029,0.04,0.052,0.12,0.068
			c0.116,0.024,0.19,0.045,0.223,0.062c0.079,0.036,0.118,0.095,0.118,0.173c0,0.084-0.03,0.148-0.09,0.192
			c-0.06,0.044-0.139,0.065-0.237,0.065c-0.048,0-0.094-0.007-0.136-0.019c-0.042-0.013-0.08-0.03-0.111-0.054
			c-0.031-0.022-0.056-0.049-0.074-0.082c-0.019-0.03-0.028-0.065-0.029-0.104h0.201c0,0.034,0.013,0.062,0.04,0.081
			c0.027,0.021,0.063,0.03,0.108,0.03c0.037,0,0.068-0.007,0.095-0.021c0.027-0.015,0.04-0.033,0.04-0.057
			c0-0.014-0.01-0.025-0.029-0.039c-0.019-0.013-0.049-0.023-0.089-0.031c-0.115-0.027-0.188-0.049-0.22-0.063
			c-0.079-0.036-0.118-0.095-0.118-0.175c0-0.032,0.007-0.063,0.02-0.094c0.013-0.029,0.032-0.058,0.058-0.08
			c0.026-0.022,0.059-0.041,0.098-0.057c0.04-0.014,0.086-0.021,0.14-0.021c0.043,0,0.083,0.006,0.121,0.019
			c0.038,0.013,0.07,0.028,0.098,0.05c0.028,0.022,0.05,0.049,0.066,0.079c0.017,0.03,0.026,0.063,0.028,0.101H120.242z
			 M119.726,135.536h-0.184v-0.103c-0.049,0.08-0.125,0.121-0.228,0.121c-0.037,0-0.07-0.006-0.101-0.02
			c-0.031-0.014-0.057-0.031-0.079-0.057c-0.022-0.022-0.04-0.053-0.052-0.084c-0.013-0.033-0.019-0.07-0.019-0.111V134.8h0.194
			v0.456c0,0.092,0.042,0.137,0.125,0.137c0.049,0,0.087-0.016,0.113-0.047c0.026-0.031,0.039-0.07,0.039-0.121V134.8h0.192V135.536
			L119.726,135.536z M118.991,135.536h-0.196v-0.681l-0.186,0.681h-0.206l-0.184-0.677v0.677h-0.194v-0.993h0.305l0.178,0.729h0.003
			l0.178-0.729h0.301v0.993H118.991z"/>
	</g>
</g>
</svg>
